<svg xmlns="http://www.w3.org/2000/svg" viewBox="0 0 360 60" fill="#fff"><path d="M359 50.9h-4.3l-.9-1.5.9-1.5h4.3c.3 0 .6-.2.8-.5.2-.3.2-.6.1-.9a7.46 7.46 0 00-6.5-4.2c-2.8-.1-5.4 1.3-6.8 3.6h-33.3a7.46 7.46 0 00-6.5-3.6c-2.9 0-5.5 1.6-6.8 4.2-.1.3-.1.7.1.9.2.3.5.4.8.4h4.3l.9 1.5-.9 1.5H301c-.3 0-.6.2-.8.5-.2.3-.2.6-.1.9 1.3 2.6 3.9 4.2 6.8 4.2 2.7 0 5.1-1.4 6.5-3.6h33.3c1.4 2.4 4 3.7 6.8 3.6 2.8-.1 5.2-1.7 6.5-4.2.1-.3.1-.7-.1-.9-.2-.2-.5-.4-.9-.4zm-5.9 3.7c-2.1 0-4.1-1.2-5-3.1-.2-.3-.5-.6-.9-.6h-34.5c-.4 0-.7.2-.9.6-.9 1.9-2.9 3.1-5 3.1-1.5 0-3-.6-4.1-1.7h3c.3 0 .6-.2.8-.5L308 50c.2-.3.2-.7 0-1l-1.5-2.4c-.2-.3-.5-.5-.8-.5h-3a5.66 5.66 0 019.1 1.4c.2.3.5.6.9.6h34.5c.4 0 .7-.2.9-.6.9-1.9 2.9-3.1 5-3.1 1.5 0 3 .6 4.1 1.7h-3c-.3 0-.6.2-.8.5l-1.5 2.4c-.2.3-.2.7 0 1l1.5 2.4c.2.3.5.5.8.5h3a5.66 5.66 0 01-4.1 1.7z"/><path d="M310.6 29.6h2.9c.2.6.4 1.1.7 1.7l-2.1 2.1c-.4.4-.4 1 0 1.4l6.8 6.8c.4.4 1 .4 1.4 0l2.1-2.1c.6.3 1.1.5 1.7.7v2.9c0 .5.4 1 1 1h9.7c.5 0 1-.4 1-1v-2.9c.6-.2 1.1-.4 1.7-.7l2.1 2.1c.4.4 1 .4 1.4 0l6.8-6.8c.4-.4.4-1 0-1.4l-2.1-2.1c.3-.6.5-1.1.7-1.7h2.9c.5 0 1-.4 1-1V19c0-.5-.4-1-1-1h-2.9c-.2-.6-.4-1.1-.7-1.7l2.1-2.1c.4-.4.4-1 0-1.4L341 6.1c-.4-.4-1-.4-1.4 0l-2.1 2.1c-.6-.3-1.1-.5-1.7-.7v-3c0-.5-.4-1-1-1h-9.7a1 1 0 00-1 1v2.9c-.6.2-1.1.4-1.7.7l-2-2.1c-.4-.4-1-.4-1.4 0l-6.8 6.8c-.4.4-.4 1 0 1.4l2.1 2.1c-.3.6-.5 1.1-.7 1.7h-2.9a1 1 0 00-1 1v9.7c0 .5.4.9.9.9zm1-9.6h2.7c.4 0 .8-.3.9-.7.3-.9.7-1.8 1.1-2.7.2-.4.1-.8-.2-1.1l-1.9-1.9 5.5-5.5 1.9 1.9c.3.3.8.4 1.1.2.9-.5 1.8-.8 2.7-1.1.4-.1.7-.5.7-.9V5.5h7.7v2.7c0 .4.3.8.7.9.9.3 1.8.7 2.7 1.1.4.2.8.1 1.1-.2l1.9-1.9 5.5 5.5-1.9 1.9c-.3.3-.4.8-.2 1.1.5.9.8 1.8 1.1 2.7.1.4.5.7.9.7h2.7v7.7h-2.7c-.4 0-.8.3-.9.7-.3.9-.7 1.8-1.1 2.7-.2.4-.1.8.2 1.1l1.9 1.9-5.5 5.5-1.9-1.9c-.3-.3-.8-.4-1.1-.2-.9.5-1.8.8-2.7 1.1-.4.1-.7.5-.7.9v2.7h-7.7v-2.7c0-.4-.3-.8-.7-.9-.9-.3-1.8-.7-2.7-1.1-.4-.2-.8-.1-1.1.2l-1.9 1.9-5.5-5.5 1.9-1.9c.3-.3.4-.8.2-1.1-.5-.9-.8-1.8-1.1-2.7-.1-.4-.5-.7-.9-.7h-2.7V20z"/><path d="M330 34.5a10.6 10.6 0 10-.01-21.21A10.6 10.6 0 00330 34.5zm0-19.4a8.7 8.7 0 11-.01 17.41A8.7 8.7 0 01330 15.1z"/><path d="M330 31.6a7.7 7.7 0 100-15.4 7.7 7.7 0 000 15.4zm0-13.6a5.8 5.8 0 110 11.6 5.8 5.8 0 010-11.6zM346.5 26.7c.5 0 1-.4 1-1v-3.9c0-.5-.4-1-1-1s-1 .4-1 1v3.9c0 .6.4 1 1 1zM314.5 21.9a1 1 0 00-2 0v1a1 1 0 002 0v-1zM341.4 14.4c.4.4 1 .4 1.4 0 .4-.4.4-1 0-1.4l-2.4-2.4c-.4-.4-1-.4-1.4 0-.4.4-.4 1 0 1.4l2.4 2.4zM330 9.3h1a1 1 0 000-2h-1a1 1 0 00-1 1c0 .6.5 1 1 1zM330 39.3h-1.9a1 1 0 000 2h1.9c.5 0 1-.4 1-1 0-.5-.5-1-1-1zM317.4 15.1c.3 0 .5-.1.7-.3l1-1c.4-.4.4-1 0-1.4-.4-.4-1-.4-1.4 0l-1 1c-.3.3-.4.7-.2 1.1.2.4.5.6.9.6zM341.9 33.8l-1 1c-.3.2-.4.6-.3.9.1.3.4.6.7.7.3.1.7 0 .9-.3l1-1c.4-.4.4-1 0-1.4-.3-.3-.9-.3-1.3.1zM318.7 36.1c.4.4 1 .4 1.4 0 .4-.4.4-1 0-1.4l-1.9-1.9c-.4-.4-1-.4-1.4 0-.4.4-.4 1 0 1.4l1.9 1.9zM37.7 38.7h-4.8V1c0-.5-.4-1-1-1H28a1 1 0 00-1 1v37.7h-4.8a1 1 0 00-1 1v5.8c0 .5.4 1 1 1H27V59c0 .5.4 1 1 1h3.9c.5 0 1-.4 1-1V46.5h4.8c.5 0 1-.4 1-1v-5.8c0-.6-.4-1-1-1zm-.9 5.8H23.2v-3.9h13.5v3.9zM16.5 6.8h-4.8V1c0-.5-.4-1-1-1H6.8a1 1 0 00-1 1v5.8H1a1 1 0 00-1 1v5.8c0 .5.4 1 1 1h4.8V59c0 .5.4 1 1 1h3.9c.5 0 1-.4 1-1V14.5h4.8c.5 0 1-.4 1-1V7.7c-.1-.5-.5-.9-1-.9zm-1 5.8H1.9V8.7h13.5v3.9zM59 26.1h-4.8V1c0-.5-.4-1-1-1h-3.9a1 1 0 00-1 1v25.2h-4.8a1 1 0 00-1 1V33c0 .5.4 1 1 1h4.8v25c0 .5.4 1 1 1h3.9c.5 0 1-.4 1-1V33.9H59c.5 0 1-.4 1-1v-5.8c0-.5-.4-1-1-1zm-.9 5.8H44.5V28H58v3.9zM61.7 20.3c.2.1.5.1.7 0 .2-.1.4-.3.5-.5a28.15 28.15 0 0151.8-1.5h-4.3a1 1 0 000 2h5.7c.4 0 .8-.3.9-.7l1.9-5.8c.2-.5-.1-1.1-.6-1.2-.5-.2-1.1.1-1.2.6l-1.2 3.5A29.76 29.76 0 0087.9 0C76 .5 65.5 8 61.1 19c-.1.5.1 1.1.6 1.3zM118.5 39.8c-.2-.1-.5-.1-.7 0-.2.1-.4.3-.5.5a28.02 28.02 0 01-25.4 17.8c-11.3.3-21.6-6.2-26.3-16.4h4.3c.5 0 1-.4 1-1s-.4-1-1-1h-5.7-.1c-.4 0-.8.3-.9.7l-1.9 5.8c-.2.5.1 1.1.6 1.2.5.2 1.1-.1 1.2-.6l1.2-3.5a29.66 29.66 0 0028 16.7A30 30 0 00119 41c.2-.5 0-1.1-.5-1.2z"/><path d="M83.8 51.2c.4.2.9.2 1.2-.1l20.3-20.3c.2-.2.3-.6.3-.9-.1-.3-.3-.6-.6-.7l-8-2.7 3.7-16.6a1 1 0 00-.5-1.1c-.4-.2-.8-.1-1.1.2L75.8 32.3c-.3.3-.4.7-.2 1.1.2.4.5.6.9.6h12.2l-5.4 16.1c-.1.4.1.9.5 1.1zM91 33.3c.1-.3 0-.6-.1-.9a.9.9 0 00-.8-.4H78.9l19.2-19.2L94.9 27c-.1.5.2 1 .6 1.1l7.2 2.4-16.2 16.3L91 33.3z"/><path d="M88.1 29.1h-4.8c-.5 0-1 .4-1 1s.4 1 1 1h4.8c.5 0 1-.4 1-1s-.4-1-1-1zM156.8 34.7V6.8a6.8 6.8 0 00-13.6 0v27.9c-5.3 3.1-7.9 9.3-6.3 15.2a13.6 13.6 0 0026.2 0c1.6-5.9-1-12.1-6.3-15.2zM150 58.1c-5.3 0-10-3.7-11.3-8.9a11.7 11.7 0 015.9-13.1c.3-.2.5-.5.5-.9V6.8a4.8 4.8 0 019.6 0v28.5c0 .4.2.7.5.9 4.7 2.5 7.2 7.9 5.9 13.1-1.1 5.1-5.8 8.8-11.1 8.8z"/><path d="M154.9 37l-1-.5V6.8a3.9 3.9 0 00-7.8 0v29.7l-1 .5c-4.4 2.3-6.6 7.2-5.4 12a10.6 10.6 0 0020.6 0c1.2-4.8-1-9.7-5.4-12zM150 55.2c-4 0-7.5-2.7-8.5-6.6-1-3.9.9-7.9 4.4-9.8l1.6-.8c.3-.2.5-.5.5-.9V6.8a1.9 1.9 0 113.8 0v1.9h-1a1 1 0 000 2h1v3.9h-1a1 1 0 000 2h1v3.9h-1a1 1 0 000 2h1v14.8c0 .4.2.7.5.9l1.6.8c3.6 1.9 5.4 5.9 4.4 9.8-.8 3.6-4.3 6.4-8.3 6.4z"/><path d="M151 39.8V32a1 1 0 00-2 0v7.8c-3.5.5-6 3.6-5.8 7.2.3 3.5 3.2 6.3 6.8 6.3a6.78 6.78 0 001-13.5zm-1 11.5c-2.7 0-4.8-2.2-4.8-4.8s2.2-4.8 4.8-4.8a4.8 4.8 0 010 9.6zM150 30c.5 0 1-.4 1-1v-1a1 1 0 00-2 0v1c0 .6.5 1 1 1zM210 17.4c-14.5 0-30-3.1-30-8.7C180 3 195.5 0 210 0s30 3.1 30 8.7c0 5.7-15.5 8.7-30 8.7zm0-15.5c-17.4 0-28.1 3.9-28.1 6.8 0 2.8 10.7 6.8 28.1 6.8s28.1-3.9 28.1-6.8c0-2.8-10.7-6.8-28.1-6.8z"/><path d="M210 27.1c-2.7 0-5.4-.1-8.1-.4-3.4-.4-14.7-1.9-14.7-6.4 0-1.5 1.3-2.9 3.9-4 .3-.1.7-.1 1 .1.3.2.4.6.4.9 0 .3-.3.6-.6.8-2 .9-2.8 1.7-2.8 2.2 0 1.3 4 3.5 12.9 4.4 5.2.5 10.3.5 15.5 0 9.1-.9 13.2-3.2 13.2-4.5 0-.5-.7-1.3-2.8-2.2-.3-.1-.6-.4-.6-.8 0-.3.1-.7.4-.9.3-.2.7-.3 1-.1 2.6 1.1 3.9 2.4 3.9 4 0 4.5-11.4 6-14.9 6.4-2.4.4-5.1.5-7.7.5z"/><path d="M209.8 34.3c-1.6 0-3.2-.1-4.8-.2-3.4-.3-11.5-1.4-11.5-4.8 0-1.1.8-2.1 2.5-2.9.5-.2 1 0 1.2.5.2.5 0 1-.4 1.3-1.1.5-1.4 1-1.4 1.1 0 .7 2.9 2.3 9.7 2.9 3.1.3 6.1.3 9.2 0 6.8-.6 9.7-2.2 9.7-2.9 0-.1-.3-.6-1.4-1.1-.5-.2-.7-.8-.5-1.3.2-.5.8-.7 1.3-.5 1.7.8 2.6 1.8 2.6 2.9 0 3.5-8 4.5-11.5 4.8-1.5.1-3.1.2-4.7.2z"/><path d="M209.8 40.1c-4.8 0-12.8-.9-12.8-4.1 0-.8.5-1.5 1.2-1.9.3-.2.7-.3 1-.1.3.1.5.5.6.8 0 .4-.1.7-.4.9-.3.2-.3.3-.3.3.2.6 3.7 2.2 10.9 2.2 7.1 0 10.7-1.6 10.9-2.2l-.3-.3c-.4-.3-.5-.9-.2-1.3s.9-.5 1.3-.2c.7.4 1.1 1.1 1.2 1.9-.3 3.2-8.4 4-13.1 4zM210 60c-.4 0-.7-.2-.8-.5l-9.7-17.4a.9.9 0 010-1c.2-.3.5-.5.9-.5s.7.2.8.5L210 57l8.8-15.9c.2-.3.5-.5.8-.5.4 0 .7.2.9.5.2.3.2.7 0 1l-9.7 17.4c-.1.3-.4.5-.8.5zM210 13.6c-2.6 0-25.2-.1-25.2-4.8S207.4 4 210 4c2.6 0 25.2.1 25.2 4.8 0 4.6-22.6 4.8-25.2 4.8zm-23.2-4.9c1.2 1.2 9.8 2.9 23.2 2.9 13.4 0 21.9-1.7 23.2-2.9-1.2-1.2-9.8-2.9-23.2-2.9-13.4 0-21.9 1.7-23.2 2.9zM272.8 6.6c-2.4 0-4.8.7-6.8 2.1s-3.6 3.2-4.5 5.5a12.1 12.1 0 002.6 13.2c1.7 1.7 3.9 2.9 6.2 3.3 2.4.5 4.8.2 7-.7 2.2-.9 4.1-2.5 5.5-4.5 1.3-2 2.1-4.4 2.1-6.8a12.12 12.12 0 00-12.1-12.1zm0 22.5c-2 0-4-.6-5.7-1.7a10.3 10.3 0 01-4.4-10.6c.4-2 1.4-3.8 2.8-5.3 1.4-1.4 3.3-2.4 5.3-2.8a10.3 10.3 0 112 20.4z"/><path d="M272.8 10.3c-.2 0-.5.1-.7.3-.2.2-.3.4-.3.7s.1.5.3.7c.2.2.4.3.7.3 1.7 0 3.4.7 4.6 1.9a6.6 6.6 0 011.9 4.6c0 .2.1.5.3.7.2.2.4.3.7.3s.5-.1.7-.3c.2-.2.3-.4.3-.7a8.57 8.57 0 00-8.5-8.5zM265.3 41.3c0-2.4-.7-4.8-2.1-6.8-1.3-2-3.2-3.6-5.5-4.5a12.1 12.1 0 00-13.2 2.6c-1.7 1.7-2.9 3.9-3.3 6.2-.5 2.4-.2 4.8.7 7 .9 2.2 2.5 4.1 4.5 5.5 2 1.3 4.4 2.1 6.8 2.1a12.12 12.12 0 0012.1-12.1zm-12.2 10.3c-2 0-4-.6-5.7-1.7a10.3 10.3 0 01-4.4-10.6c.4-2 1.4-3.8 2.8-5.3 1.4-1.4 3.3-2.4 5.3-2.8a10.3 10.3 0 112 20.4z"/><path d="M253.1 32.8c-.2 0-.5.1-.7.3s-.3.4-.3.7.1.5.3.7.4.3.7.3c1.7 0 3.4.7 4.6 1.9a6.6 6.6 0 011.9 4.6c0 .2.1.5.3.7.2.2.4.3.7.3s.5-.1.7-.3c.2-.2.3-.4.3-.7a8.57 8.57 0 00-8.5-8.5zM292.5 42.2c1.3 0 2.6-.4 3.6-1.1s1.9-1.7 2.4-2.9.6-2.5.4-3.8-.9-2.4-1.8-3.4c-.9-.9-2.1-1.5-3.4-1.8-1.3-.3-2.6-.1-3.8.4a6.63 6.63 0 00-4 6 6.68 6.68 0 006.6 6.6zm0-11.3c.9 0 1.8.3 2.6.8s1.4 1.2 1.7 2.1c.4.9.4 1.8.3 2.7a4.74 4.74 0 01-3.7 3.7c-.9.2-1.9.1-2.7-.3-.9-.4-1.6-1-2.1-1.7-.5-.8-.8-1.7-.8-2.6 0-1.2.5-2.4 1.4-3.3.9-.9 2.1-1.4 3.3-1.4z"/><path d="M292.5 33.8c.5 0 1 .2 1.3.5.4.4.5.8.5 1.3 0 .2.1.5.3.7.2.2.4.3.7.3s.5-.1.7-.3c.2-.2.3-.4.3-.7 0-1-.4-1.9-1.1-2.7-.7-.7-1.7-1.1-2.7-1.1-.2 0-.5.1-.7.3-.2.2-.3.4-.3.7s.1.5.3.7c.2.2.5.3.7.3zM252.2 27.2c1.3 0 2.6-.4 3.6-1.1a6.2 6.2 0 002.4-2.9c.5-1.2.6-2.5.4-3.8s-.9-2.4-1.8-3.4c-.9-.9-2.1-1.5-3.4-1.8-1.3-.3-2.6-.1-3.8.4a6.63 6.63 0 00-4 6c0 1.7.7 3.4 1.9 4.6 1.3 1.3 2.9 2 4.7 2zm0-11.3c.9 0 1.8.3 2.6.8s1.4 1.2 1.7 2.1c.4.9.4 1.8.3 2.7a4.74 4.74 0 01-3.7 3.7c-.9.2-1.9.1-2.7-.3-.9-.4-1.6-1-2.1-1.7-.5-.8-.8-1.7-.8-2.6 0-1.2.5-2.4 1.4-3.3.9-.9 2-1.4 3.3-1.4z"/><path d="M252.2 18.8c.5 0 1 .2 1.3.5.4.4.5.8.5 1.3 0 .2.1.5.3.7.2.2.4.3.7.3s.5-.1.7-.3c.2-.2.3-.4.3-.7 0-1-.4-1.9-1.1-2.7-.7-.7-1.7-1.1-2.7-1.1-.2 0-.5.1-.7.3-.2.2-.3.4-.3.7s.1.5.3.7c.2.2.4.3.7.3zM275.6 38.4c-1.7 0-3.3.5-4.7 1.4-1.4.9-2.5 2.2-3.1 3.8a9 9 0 00-.5 4.9c.3 1.6 1.1 3.1 2.3 4.3 1.2 1.2 2.7 2 4.3 2.3 1.6.3 3.3.2 4.9-.5 1.5-.6 2.9-1.7 3.8-3.1a8.57 8.57 0 00-1.1-10.7 8.31 8.31 0 00-5.9-2.4zm0 15c-1.3 0-2.6-.4-3.6-1.1s-1.9-1.7-2.4-2.9-.6-2.5-.4-3.8.9-2.4 1.8-3.4c.9-.9 2.1-1.5 3.4-1.8 1.3-.3 2.6-.1 3.8.4a6.63 6.63 0 014 6c0 1.7-.7 3.4-1.9 4.6-1.3 1.4-2.9 2-4.7 2z"/><path d="M275.6 42.2c-.2 0-.5.1-.7.3-.2.2-.3.4-.3.7s.1.5.3.7c.2.2.4.3.7.3.7 0 1.5.3 2 .8s.8 1.2.8 2c0 .2.1.5.3.7.2.2.4.3.7.3s.5-.1.7-.3c.2-.2.3-.4.3-.7 0-1.2-.5-2.4-1.4-3.3-.9-1-2.1-1.5-3.4-1.5zM286.9 23.4c0 .6.2 1.1.5 1.6s.7.8 1.3 1c.5.2 1.1.3 1.6.2.5-.1 1-.4 1.4-.8.4-.4.7-.9.8-1.4.1-.5.1-1.1-.2-1.6-.2-.5-.6-1-1-1.3-.5-.3-1-.5-1.6-.5-.7 0-1.5.3-2 .8-.5.6-.8 1.3-.8 2zm3.7 0c0 .2-.1.4-.2.5-.1.2-.2.3-.4.3-.2.1-.4.1-.5.1-.2 0-.3-.1-.5-.3-.1-.1-.2-.3-.3-.5s0-.4.1-.5c.1-.2.2-.3.3-.4.2-.1.3-.2.5-.2s.5.1.7.3c.2.3.3.5.3.7zM281.2 31.9c-.6 0-1.1.2-1.6.5s-.8.7-1 1.3c-.2.5-.3 1.1-.2 1.6.1.5.4 1 .8 1.4.4.4.9.7 1.4.8.5.1 1.1.1 1.6-.2.5-.2 1-.6 1.3-1 .3-.5.5-1 .5-1.6 0-.7-.3-1.5-.8-2s-1.2-.8-2-.8zm0 3.7c-.2 0-.4-.1-.5-.2-.2-.1-.3-.2-.3-.4-.1-.2-.1-.4-.1-.5s.1-.3.3-.5.3-.2.5-.3c.2 0 .4 0 .5.1.2.1.3.2.4.3.1.2.2.3.2.5s-.1.5-.3.7c-.2.2-.4.3-.7.3zM270.9 35.6c0-.6-.2-1.1-.5-1.6s-.7-.8-1.3-1c-.5-.2-1.1-.3-1.6-.2-.5.1-1 .4-1.4.8-.4.4-.7.9-.8 1.4-.1.5-.1 1.1.2 1.6.2.5.6 1 1 1.3.5.3 1 .5 1.6.5.7 0 1.5-.3 2-.8s.8-1.2.8-2zm-3.7 0c0-.2.1-.4.2-.5.1-.2.2-.3.4-.3.2-.1.4-.1.5-.1.2 0 .3.1.5.3s.2.3.3.5 0 .4-.1.5c-.1.2-.2.3-.3.4-.2.1-.3.2-.5.2s-.5-.1-.7-.3a.9.9 0 01-.3-.7zM255 11.3c0 .6.2 1.1.5 1.6s.7.8 1.3 1c.5.2 1.1.3 1.6.2.5-.1 1-.4 1.4-.8.4-.4.7-.9.8-1.4.1-.5.1-1.1-.2-1.6-.2-.5-.6-1-1-1.3-.5-.3-1-.5-1.6-.5-.7 0-1.5.3-2 .8s-.8 1.2-.8 2zm3.8 0c0 .2-.1.4-.2.5-.1.2-.2.3-.4.3-.2.1-.4.1-.5.1-.2 0-.3-.1-.5-.3s-.2-.3-.3-.5 0-.4.1-.5c.1-.2.2-.3.3-.4.2-.1.3-.2.5-.2s.5.1.7.3c.2.2.3.4.3.7zM243.8 30c.6 0 1.1-.2 1.6-.5s.8-.7 1-1.3c.2-.5.3-1.1.2-1.6-.1-.5-.4-1-.8-1.4-.4-.4-.9-.7-1.4-.8-.5-.1-1.1-.1-1.6.2s-1 .6-1.3 1c-.3.5-.5 1-.5 1.6 0 .7.3 1.5.8 2s1.2.8 2 .8zm0-3.7c.2 0 .4.1.5.2.2.1.3.2.3.4.1.2.1.4.1.5 0 .2-.1.3-.3.5-.1.1-.3.2-.5.3-.2 0-.4 0-.5-.1-.2-.1-.3-.2-.4-.3-.1-.2-.2-.3-.2-.5s.1-.5.3-.7c.2-.2.4-.3.7-.3zM249.4 7.5h1.9v1.9c0 .2.1.5.3.7s.4.3.7.3.5-.1.7-.3.3-.4.3-.7V7.5h1.9c.2 0 .5-.1.7-.3.2-.2.3-.4.3-.7s-.1-.5-.3-.7a.9.9 0 00-.7-.3h-1.9V3.8c0-.2-.1-.5-.3-.7-.2-.2-.4-.3-.7-.3s-.5.1-.7.3c-.2.2-.3.4-.3.7v1.9h-1.9c-.2 0-.5.1-.7.3-.2.2-.3.4-.3.7s.1.5.3.7c.2 0 .4.1.7.1zM257.8 7.5h.9c.2 0 .5-.1.7-.3.2-.2.3-.4.3-.7s-.1-.5-.3-.7a.9.9 0 00-.7-.3h-.9c-.2 0-.5.1-.7.3-.2.2-.3.4-.3.7s.1.5.3.7c.2.2.5.3.7.3zM296.2 46.9h-1.9V45c0-.2-.1-.5-.3-.7-.2-.2-.4-.3-.7-.3s-.5.1-.7.3c-.2.2-.3.4-.3.7v1.9h-1.9c-.2 0-.5.1-.7.3-.2.2-.3.4-.3.7s.1.5.3.7c.2.2.4.3.7.3h1.9v1.9c0 .2.1.5.3.7.2.2.4.3.7.3s.5-.1.7-.3c.2-.2.3-.4.3-.7v-1.9h1.9c.2 0 .5-.1.7-.3.2-.2.3-.4.3-.7s-.1-.5-.3-.7a.9.9 0 00-.7-.3zM287.8 46.9h-.9c-.2 0-.5.1-.7.3-.2.2-.3.4-.3.7s.1.5.3.7c.2.2.4.3.7.3h.9c.2 0 .5-.1.7-.3.2-.2.3-.4.3-.7s-.1-.5-.3-.7a.9.9 0 00-.7-.3zM286.9 16.9h.9v.9c0 .2.1.5.3.7.2.2.4.3.7.3s.5-.1.7-.3c.2-.2.3-.4.3-.7v-.9h.9c.2 0 .5-.1.7-.3.2-.2.3-.4.3-.7 0-.2-.1-.5-.3-.7a.9.9 0 00-.7-.3h-.9V14c0-.2-.1-.5-.3-.7-.2-.2-.4-.3-.7-.3s-.5.1-.7.3c-.2.2-.3.4-.3.7v1h-.9c-.2 0-.5.1-.7.3-.2.2-.3.4-.3.7 0 .2.1.5.3.7.2.1.4.2.7.2zM266.2 54.4h-.9v-.9c0-.2-.1-.5-.3-.7-.2-.2-.4-.3-.7-.3s-.5.1-.7.3c-.2.2-.3.4-.3.7v.9h-.9c-.2 0-.5.1-.7.3-.2.2-.3.4-.3.7s.1.5.3.7c.2.2.4.3.7.3h.9v.9c0 .2.1.5.3.7.2.2.4.3.7.3s.5-.1.7-.3c.2-.2.3-.4.3-.7v-.9h.9c.2 0 .5-.1.7-.3.2-.2.3-.4.3-.7s-.1-.5-.3-.7a.9.9 0 00-.7-.3z"/><circle cx="91.1" cy="30.1" r="1"/></svg>
