<svg xmlns="http://www.w3.org/2000/svg" viewBox="0 0 184 80" fill="#fff"><path d="M55.2 32c-.2-.4-.5-.6-.9-.6l-17.9-.1a1 1 0 00-.7.3L23 44.3c-.3.3-.4.7-.2 1.1l4.5 10.7c.1.4.5.6.9.6l2.3.1h1.1a42 42 0 0028.1-12.3c.3-.3.4-.7.2-1.1L55.2 32zM31.5 54.7h-2.7l-4-9.4 11.8-11.9h16.7l4.2 10.1a38.7 38.7 0 01-26 11.2zM31.7 27.8l-5.3-12.6c-.2-.4-.5-.6-.9-.6h-16a1 1 0 00-.7.3c-7.9 7.4-10.7 17-7.5 24.7l.8 1.7c.2.3.5.5.9.5h15c.3 0 .5-.1.7-.3l12.6-12.7c.4-.2.5-.6.4-1zm-14 12h-14l-.4-.9C.4 32 2.9 23.4 9.8 16.5h14.9L29.5 28 17.7 39.8zM67 14.1l-.6-1.8C63.2 4.6 54.4-.1 43.5 0a1 1 0 00-.7.3L31.5 11.6c-.3.3-.4.7-.2 1.1l5.3 12.6c.2.4.5.6.9.6h18c.3 0 .5-.1.7-.3L66.8 15c.2-.1.3-.5.2-.9zM55 24H38.2l-4.8-11.4L43.9 2c9.8 0 17.7 4.2 20.6 11.1l.4 1L55 24zM129.4 63.9l-.1-1-.2-1.1-.4-.8-.8-.4-1.1-.2h-2.9l-1.1.2-.8.4-.4.8-.2 1.1-.1 1v.6l-.8 9.4v.4l.2.5.5.2h.8l.5-.2.2-.5v-.4l.8-9.4v-.3-.5l.1-.5.2-.4.4-.2 1.6-.1.5.1.4.2.2.4.1.5v.8l.8 9.4v.4l.2.5.5.2h.9l.5-.2.2-.5v-.4l-.8-9.4.1-.6zM76.2 55.3a.8.8 0 00-.5-.2h-.9l-.5.2-.2.5v3.3l-.1.5-.3.5-.3.4-.2.2-5.4 5.4v-9.9-.4l-.2-.5a.8.8 0 00-.5-.2h-.8l-.5.2-.2.5v18.4l.2.5.5.2h.8l.5-.2.2-.5V70.1l.1-.5.3-.5.3-.4.2-.2 1.8-1.8 2.6 2.6.2.2.3.4.3.5.1.5v3.3l.2.5.5.2h.9l.5-.2.2-.5v-3.9l-.3-.9-.6-.9-.7-.8-.4-.5-2.1-2.2 2.3-2.3.4-.5.7-.8.6-.9.3-.9v-3.5-.4l-.3-.4zM89.5 62.8l-.2-1.1-.4-.8-.8-.4-1.1-.2-1-.1h-2.4l-1 .1-1.1.2-.8.4-.4.7a3 3 0 00-.2 1v.5l.1.5.5.2.4.1h.5l.5-.1.2-.3.1-.3.1-.3.1-.2.4-.2.5-.1H86.1l.5.1.4.2.2.4.1.5v2l.1.3.1.1h-.2l-.6-.5c-.3-.2-.7-.3-1.3-.3H83.6l-1 .1-1.1.2-.8.4-.4.8-.2 1.1-.1 1v2.4l.1 1 .2 1.1.4.8.8.4 1.1.2 1 .1H86l1-.1 1.1-.2.8-.4.4-.8.2-1.1.1-1v-6.8-.6l-.1-1zm-2.2 6.7v2l-.1.5-.2.4-.4.2-.5.1H83.5l-.5-.1-.4-.2-.2-.4-.1-.5V71v-1.5-.3-.5l.1-.5.2-.4.4-.2.5-.1H86.1l.5.1.4.2.2.4.1.5v.8zM103.1 62.8l-.2-1.1-.4-.8-.8-.4-1.1-.2-1-.1h-2.4l-1 .1-1.1.2-.8.4-.4.8-.2 1.1-.1 1v15.4l.2.5.5.2h.9l.5-.2.2-.5v-4.7l-.1-.3-.1-.1.1.1.6.5c.3.2.8.3 1.3.3H99.5l1-.1 1.1-.2.8-.4.4-.8.2-1.1.1-1v-6.8-.6-1.2zm-2.2 1.6v7l-.1.5-.2.4-.4.2-.5.1H97.1l-.5-.1-.4-.2a.8.8 0 01-.2-.4l-.1-.5v-.5-6.5-.3-.5l.1-.5.2-.4.4-.2.5-.1H99.7l.5.1.4.2.2.4.1.5v.8zM116.7 62.8l-.2-1.1-.4-.8-.8-.4-1.1-.2-1-.1h-2.4l-1 .1-1.1.2-.8.4-.4.8-.2 1.1-.1 1V71.2l.1 1 .2 1.1.4.8.8.4 1.1.2 1 .1h2.4l1-.1 1.1-.2.8-.4.4-.7.2-1v-.1-.5l-.1-.5-.5-.3-.4-.1h-.5l-.5.1-.3.6-.2.5-.4.2-.5.1H110.7l-.5-.1-.4-.2-.2-.4-.1-.5v-.5-2l-.1-.3-.1-.1.1.1.6.5c.3.2.8.3 1.3.3H113.1l1-.1 1.1-.2.8-.4.4-.8.2-1.1.1-1v-1.2-.6-1zm-2.2 1.6V65.7l-.1.5-.2.4-.4.2-.5.1H110.7l-.5-.1-.4-.2-.2-.4-.1-.5v-.4V64.4v-.3-.4l.1-.5.2-.4.4-.2.5-.1H113.3l.5.1.4.2.2.4.1.5v.7zM168.5 62.8l-.2-1.1-.4-.8-.8-.4-1.1-.2-1-.1h-2.4l-1 .1-1.1.2-.8.4-.4.7a3 3 0 00-.2 1v.5l.1.5.5.2.4.1h.5l.5-.1.2-.3.1-.3.1-.3.1-.2.4-.2.5-.1H165.1l.5.1.4.2.2.4.1.5v2l.1.3.1.1-.1-.1-.6-.5c-.3-.2-.7-.3-1.3-.3H162.7l-1 .1-1.1.2-.8.4-.4.8-.2 1.1-.1 1v2.4l.1 1 .2 1.1.4.8.8.4 1.1.2 1 .1h2.4l1-.1 1.1-.2.8-.4.4-.8.2-1.1.1-1v-6.8-.6l-.2-.9zm-2.2 6.7v2l-.1.5-.2.4-.4.2-.5.1H162.5l-.5-.1-.4-.2-.2-.4-.1-.5V71v-1.5-.3-.5l.1-.5.2-.4.4-.2.5-.1H165.1l.5.1.4.2.2.4.1.5v.8zM143.1 61.4V61l-.2-.5a.8.8 0 00-.5-.2h-.4-.4l-.5.2-.2.5v10.5l-.1.5-.2.4-.4.2-.5.1H137.1l-.5-.1-.4-.2-.2-.4-.1-.5V71 61.3v-.4l-.2-.5a.8.8 0 00-.5-.2h-.9l-.5.2-.2.5v10.4l.1 1 .2 1.1.4.8.8.4 1.1.2 1 .1h2.4l1-.1.4-.1.1.1.5.2h.8l.5-.2.2-.5V61.4zM156 60.4a.8.8 0 00-.5-.2h-.8l-.5.2-.2.5v5.4h-5v-5-.4l-.2-.5a.8.8 0 00-.5-.2h-.8l-.5.2-.2.5V74.1l.2.5.5.2h.8l.5-.2.2-.5v-5.4h4.8v5.4l.2.5.5.2h.8l.5-.2.2-.5V61.3v-.4c.2-.3.1-.4 0-.5zM76.3 35l-.3-1.4-.5-1-1-.5-1.4-.3-1.3-.1h-5.5l-.5.2-.2.5v18.4l.2.5.5.2h.8l.5-.2.2-.5v-7.4h4l1.3-.1 1.4-.3 1-.5.5-1 .3-1.4.1-1.3v-1.6-.8l-.1-1.4zm-2.2 2.9v.5l-.1.7-.2.7-.3.6-.6.3-.8.2-.7.1h-3.6v-7h3.7l.7.1.8.2.6.3.3.6.2.7.1.7v1.3zM81.4 51.6l1 .1h2.4l1-.1 1.1-.2.8-.4.4-.7.2-1v-.1-.5l-.1-.5-.5-.3-.4-.1h-.5l-.5.1-.3.6-.2.5-.4.2-.5.1H82.3l-.5-.1-.4-.2-.2-.4-.1-.5v-.5-2l-.1-.3-.1-.1.1.1.6.5 1.4.2H84.8l1-.1 1.1-.2.8-.4.4-.8.2-1.1.1-1v-1.2-.6l-.1-1-.2-1.1-.4-.8-.8-.4-1.1-.2-1-.1h-2.4l-1 .1-1.1.2-.8.4-.4.8-.2 1.1-.1 1V48l.1 1 .2 1.1.4.8.8.4 1.1.3zm-.3-10.4v-.3-.4l.1-.5.2-.4.4-.2.5-.1H84.9l.5.1.4.2.2.4.1.5v1.9l-.1.5-.2.4-.4.2-.5.1H82.3l-.5-.1-.4-.2-.2-.4-.1-.5V42v-.8zM96 39.2h1.2l1.4-.2c.3-.1.4-.3.4-.5l.1-.4-.1-.5c0-.2-.2-.4-.4-.5l-1.4-.2h-4.7-.9l-.5.2-.2.5v13.3l.2.5.5.2h.8l.5-.2.2-.5V39.2H96zM146.1 37.1l-1.4-.2H142.1h-.9-2.7l-1.4.2c-.3.1-.4.3-.4.5l-.1.4.1.4c0 .2.2.4.4.5l1.4.2h2V50.8l.2.5.5.2h.8l.5-.2.2-.5V39.2h2l1.4-.2c.3-.1.4-.3.4-.5l.1-.4-.1-.4c0-.3-.1-.5-.4-.6zM140.2 39.2h-1.1 1.1zM139.1 36.9h1.2-1.2zM143 36.9h1.2-1.2zM144.2 39.2h-1.1 1.1zM121.2 51.6h.9l.5-.2.2-.5v-.4l-.8-9.4v-.6l-.1-1-.2-1.1-.4-.8-.8-.4-1.1-.2h-2.9l-1.1.2-.8.4-.4.8-.2 1.1-.1 1v.6l-.8 9.4v.4l.2.5.5.2h.8l.5-.2.2-.5v-.4l.8-9.4v-.3-.5l.1-.5.2-.4.4-.2 1.6-.1.5.1.4.2.2.4.1.5v.8l.8 9.4v.4l.2.5c.1.2.3.2.6.2zM157.8 39.5l-.2-1.1-.4-.8-.8-.4-1.1-.2-1-.1h-2.4l-1 .1-1.1.2-.8.4-.4.8-.2 1.1-.1 1V48l.1 1 .2 1.1.4.8.8.4 1.1.2 1 .1h2.4l1-.1 1.1-.2.8-.4.4-.8.2-1.1.1-1v-6.9-.6l-.1-1zm-2.2 1.7v7l-.1.5-.2.4-.4.2-.5.1H151.8l-.5-.1-.4-.2-.2-.4-.1-.5v-.5-6.5-.3-.4l.1-.5.2-.4.4-.2.5-.1H154.4l.5.1.4.2.2.4.1.5v.7zM170.1 40.5l-.1-1-.2-1.1-.4-.8-.8-.4-1.1-.2-1-.1h-2.4l-1 .1-1.1.2-.8.4-.4.8-.2 1.1-.1 1v15.4l.2.5.5.2h.9l.5-.2.2-.5v-4.7l-.1-.3-.1-.1.1.1.6.5c.3.2.8.3 1.3.3H166.4l1-.1 1.1-.2.8-.4.4-.8.2-1.1.1-1v-6.8l.1-.8zm-2.4.7v7l-.1.5-.2.4-.4.2-.5.1H163.9l-.5-.1-.4-.2-.2-.4-.1-.5v-.5-6.5-.3-.5l.1-.5.2-.4.4-.2.5-.1H166.5l.5.1.4.2.2.4.1.5v.8zM108.7 56.4l.8-.4.4-.8.2-1.1.1-1V38v-.4l-.2-.5a.8.8 0 00-.5-.2h-.4-.4l-.5.2-.2.5V48.2l-.1.5-.2.4-.4.2-.5.1H104.1l-.5-.1-.4-.2-.2-.4-.1-.5v-.5V38v-.4l-.2-.5a.8.8 0 00-.5-.2h-.9l-.5.2-.2.5V48l.1 1 .2 1.1.4.8.8.4 1.1.2 1 .1H106c.6 0 1-.1 1.3-.3l.6-.5.1-.1-.1.1-.1.3v2l-.1.5-.2.4-.4.2-.5.1H104.7l-.5-.1-.4-.2a.8.8 0 01-.2-.5l-.1-.3-.1-.3-.5-.1h-.5l-.5.1-.5.2-.1.5v.6l.2 1 .4.7.8.4 1.1.2 1 .1H106.6l1-.1c.4.1.7 0 1.1-.1zM134.1 51.4h.5l.5-.2.2-.5v-1.9V41v-.6l-.1-1-.2-1.1-.4-.8-.8-.4-1.1-.2-1-.1h-2.4l-1 .1-1.1.2-.8.4-.4.8-.2 1.1-.1 1V42.2l.1 1 .2 1.1.4.8.8.4.6.1-.4.4-.7.8-.6.9-.3.9V51l.2.5.5.2h.9l.5-.2.2-.5V49.2l.1-.5.3-.5.3-.4.2-.2 1.8-1.8h2.1v5.5h.2l.5.2.5-.1zm-1.2-9.9v.7l-.1.5-.2.4-.4.2-.5.1H129.1l-.5-.1-.4-.2-.2-.4-.1-.5V40.6v-.4l.1-.5.2-.4.4-.2.5-.1H131.7l.5.1.4.2.2.4.1.5V41.5z"/></svg>