<svg width="180" height="58" viewBox="0 0 180 58" fill="none" xmlns="http://www.w3.org/2000/svg">
  <g clip-path="url(#clip0_1_4983)">
    <path d="M55.74 32.8101C55.58 32.4301 55.21 32.1801 54.79 32.1801L36.93 32.1301C36.65 32.1301 36.39 32.2401 36.19 32.4301L23.56 45.1001C23.27 45.3901 23.18 45.8301 23.34 46.2101L27.8 56.8601C27.95 57.2201 28.29 57.4601 28.68 57.4901C29.46 57.5401 30.24 57.5701 31.01 57.5701C31.38 57.5701 31.76 57.5701 32.13 57.5601C42.43 57.2801 53.22 52.5701 60.28 45.2701C60.56 44.9801 60.65 44.5401 60.49 44.1701L55.73 32.8101H55.74ZM32.08 55.5201C31.73 55.5301 31.37 55.5301 31.02 55.5301C30.51 55.5301 29.99 55.5101 29.46 55.4901L25.51 46.0501L37.36 34.1701L54.1 34.2201L58.33 44.3201C51.62 50.9801 41.63 55.2501 32.08 55.5101V55.5201Z" fill="white"/>
    <path d="M32.26 28.58L26.96 15.93C26.8 15.55 26.43 15.3 26.01 15.3L9.98 15.25C9.71 15.25 9.45 15.35 9.26 15.54C1.47 23.13 -1.34 32.65 1.92 40.42C2.16 40.99 2.43 41.55 2.73 42.1C2.91 42.43 3.25 42.63 3.63 42.63L18.67 42.67C18.67 42.67 18.69 42.67 18.7 42.67C18.97 42.67 19.22 42.56 19.4 42.37L32.03 29.7C32.32 29.41 32.41 28.97 32.25 28.59L32.26 28.58ZM18.25 40.62L4.26 40.58C4.1 40.27 3.96 39.95 3.82 39.63C0.94 32.75 3.46 24.23 10.4 17.31L25.32 17.35L30.09 28.74L18.25 40.62Z" fill="white"/>
    <path d="M67.62 14.9201C67.44 14.3301 67.23 13.7401 67 13.1601C63.74 5.40012 54.96 0.650121 44.06 0.790121C43.79 0.790121 43.53 0.900121 43.34 1.09012L32.06 12.4001C31.77 12.6901 31.68 13.1301 31.84 13.5101L37.14 26.1601C37.3 26.5401 37.67 26.7901 38.09 26.7901L56.05 26.8401C56.05 26.8401 56.07 26.8401 56.08 26.8401C56.34 26.8401 56.6 26.7201 56.78 26.5401L67.36 15.9301C67.62 15.6701 67.72 15.2801 67.62 14.9201ZM55.62 24.8001L38.78 24.7501L34.01 13.3601L44.51 2.83012C54.35 2.83012 62.22 7.07012 65.1 13.9501C65.23 14.2701 65.36 14.6001 65.47 14.9301L55.63 24.8001H55.62Z" fill="white"/>
    <path d="M77.16 47.0901C77.14 47.2301 77.12 47.5001 77.11 47.9001C77.1 48.3001 77.07 48.7301 77.01 49.2001C76.95 49.6701 76.86 50.1301 76.73 50.5701C76.6 51.0201 76.42 51.3601 76.18 51.6001C75.94 51.8401 75.6 52.0301 75.15 52.1701C74.7 52.3101 74.24 52.4101 73.78 52.4701C73.31 52.5301 72.88 52.5601 72.48 52.5701C72.08 52.5801 71.81 52.5801 71.68 52.5801C71.52 52.5801 71.24 52.5801 70.84 52.5701C70.44 52.5601 70.01 52.5201 69.54 52.4701C69.07 52.4101 68.61 52.3101 68.17 52.1701C67.72 52.0301 67.38 51.8401 67.14 51.6001C66.9 51.3601 66.72 51.0201 66.59 50.5701C66.46 50.1201 66.37 49.6601 66.31 49.2001C66.25 48.7301 66.22 48.3001 66.21 47.9001C66.2 47.5001 66.18 47.2301 66.16 47.0901V38.0501C66.18 37.9101 66.19 37.6401 66.21 37.2401C66.21 36.8401 66.25 36.4101 66.31 35.9401C66.37 35.4701 66.46 35.0201 66.59 34.5701C66.72 34.1201 66.9 33.7801 67.14 33.5401C67.38 33.3001 67.72 33.1201 68.17 32.9901C68.62 32.8601 69.07 32.7701 69.54 32.7101C70.01 32.6501 70.44 32.6101 70.84 32.5901C71.24 32.5701 71.52 32.5601 71.68 32.5601C71.82 32.5601 72.09 32.5601 72.48 32.5901C72.87 32.6201 73.31 32.6501 73.78 32.7101C74.25 32.7701 74.71 32.8701 75.15 32.9901C75.59 33.1101 75.94 33.3001 76.18 33.5401C76.42 33.7801 76.6 34.1201 76.73 34.5701C76.86 35.0201 76.95 35.4801 77.01 35.9401C77.07 36.4101 77.1 36.8401 77.11 37.2401C77.12 37.6401 77.13 37.9101 77.16 38.0501V47.0901ZM74.23 49.6601C74.37 49.5201 74.48 49.3401 74.56 49.1101C74.64 48.8801 74.7 48.6401 74.73 48.3801C74.76 48.1201 74.78 47.8801 74.79 47.6501C74.79 47.4201 74.8 47.2401 74.8 47.1001V38.0601C74.8 37.9401 74.8 37.7701 74.79 37.5401C74.78 37.3101 74.76 37.0701 74.73 36.8101C74.7 36.5501 74.64 36.3001 74.56 36.0601C74.48 35.8201 74.37 35.6301 74.23 35.4901C74.09 35.3501 73.89 35.2401 73.63 35.1601C73.37 35.0801 73.11 35.0301 72.85 34.9901C72.59 34.9601 72.35 34.9401 72.12 34.9301C71.89 34.9201 71.74 34.9201 71.66 34.9201C71.58 34.9201 71.42 34.9201 71.2 34.9301C70.98 34.9401 70.72 34.9601 70.45 34.9901C70.18 35.0201 69.92 35.0801 69.66 35.1601C69.4 35.2401 69.2 35.3501 69.06 35.4901C68.92 35.6301 68.81 35.8201 68.73 36.0601C68.65 36.3001 68.6 36.5501 68.57 36.8101C68.54 37.0701 68.52 37.3101 68.51 37.5401C68.5 37.7701 68.5 37.9401 68.5 38.0601V47.1001C68.5 47.2401 68.5 47.4201 68.51 47.6501C68.51 47.8801 68.54 48.1201 68.57 48.3801C68.6 48.6401 68.65 48.8801 68.73 49.1101C68.81 49.3401 68.92 49.5301 69.06 49.6601C69.2 49.8001 69.4 49.9101 69.66 49.9901C69.92 50.0701 70.18 50.1201 70.45 50.1601C70.72 50.1901 70.97 50.2101 71.2 50.2201C71.43 50.2301 71.58 50.2301 71.66 50.2301C71.74 50.2301 71.89 50.2301 72.12 50.2201C72.35 50.2101 72.59 50.1901 72.85 50.1601C73.11 50.1301 73.37 50.0701 73.63 49.9901C73.89 49.9101 74.09 49.8001 74.23 49.6601Z" fill="white"/>
    <path d="M90.51 47.0901C90.49 47.2301 90.47 47.5001 90.46 47.9001C90.45 48.3001 90.42 48.7301 90.36 49.2001C90.3 49.6701 90.21 50.1301 90.08 50.5701C89.95 51.0201 89.77 51.3601 89.53 51.6001C89.29 51.8401 88.95 52.0301 88.5 52.1701C88.05 52.3101 87.59 52.4101 87.13 52.4701C86.66 52.5301 86.23 52.5601 85.83 52.5701C85.43 52.5801 85.16 52.5801 85.03 52.5801C84.87 52.5801 84.59 52.5801 84.19 52.5701C83.79 52.5601 83.36 52.5201 82.89 52.4701C82.42 52.4101 81.96 52.3101 81.52 52.1701C81.07 52.0301 80.73 51.8401 80.49 51.6001C80.25 51.3601 80.07 51.0201 79.94 50.5701C79.81 50.1201 79.72 49.6601 79.66 49.2001C79.6 48.7301 79.57 48.3001 79.56 47.9001C79.55 47.5001 79.53 47.2301 79.51 47.0901V38.0501C79.53 37.9101 79.54 37.6401 79.56 37.2401C79.56 36.8401 79.6 36.4101 79.66 35.9401C79.72 35.4701 79.81 35.0201 79.94 34.5701C80.07 34.1201 80.25 33.7801 80.49 33.5401C80.73 33.3001 81.07 33.1201 81.52 32.9901C81.97 32.8601 82.42 32.7701 82.89 32.7101C83.36 32.6501 83.79 32.6101 84.19 32.5901C84.59 32.5701 84.87 32.5601 85.03 32.5601C85.17 32.5601 85.44 32.5601 85.83 32.5901C86.22 32.6201 86.66 32.6501 87.13 32.7101C87.6 32.7701 88.06 32.8701 88.5 32.9901C88.94 33.1101 89.29 33.3001 89.53 33.5401C89.77 33.7801 89.95 34.1201 90.08 34.5701C90.21 35.0201 90.3 35.4801 90.36 35.9401C90.42 36.4101 90.45 36.8401 90.46 37.2401C90.47 37.6401 90.48 37.9101 90.51 38.0501V47.0901ZM87.58 49.6601C87.72 49.5201 87.83 49.3401 87.91 49.1101C87.99 48.8801 88.05 48.6401 88.08 48.3801C88.11 48.1201 88.13 47.8801 88.14 47.6501C88.14 47.4201 88.15 47.2401 88.15 47.1001V38.0601C88.15 37.9401 88.15 37.7701 88.14 37.5401C88.13 37.3101 88.11 37.0701 88.08 36.8101C88.05 36.5501 87.99 36.3001 87.91 36.0601C87.83 35.8201 87.72 35.6301 87.58 35.4901C87.44 35.3501 87.24 35.2401 86.98 35.1601C86.72 35.0801 86.46 35.0301 86.2 34.9901C85.94 34.9601 85.7 34.9401 85.47 34.9301C85.24 34.9201 85.09 34.9201 85.01 34.9201C84.93 34.9201 84.77 34.9201 84.55 34.9301C84.33 34.9401 84.07 34.9601 83.8 34.9901C83.53 35.0201 83.27 35.0801 83.01 35.1601C82.75 35.2401 82.55 35.3501 82.41 35.4901C82.27 35.6301 82.16 35.8201 82.08 36.0601C82 36.3001 81.95 36.5501 81.92 36.8101C81.89 37.0701 81.87 37.3101 81.86 37.5401C81.85 37.7701 81.85 37.9401 81.85 38.0601V47.1001C81.85 47.2401 81.85 47.4201 81.86 47.6501C81.86 47.8801 81.89 48.1201 81.92 48.3801C81.95 48.6401 82 48.8801 82.08 49.1101C82.16 49.3401 82.27 49.5301 82.41 49.6601C82.55 49.8001 82.75 49.9101 83.01 49.9901C83.27 50.0701 83.53 50.1201 83.8 50.1601C84.07 50.1901 84.32 50.2101 84.55 50.2201C84.78 50.2301 84.93 50.2301 85.01 50.2301C85.09 50.2301 85.24 50.2301 85.47 50.2201C85.7 50.2101 85.94 50.1901 86.2 50.1601C86.46 50.1301 86.72 50.0701 86.98 49.9901C87.24 49.9101 87.44 49.8001 87.58 49.6601Z" fill="white"/>
    <path d="M103.85 47.0901C103.83 47.2301 103.81 47.5001 103.8 47.9001C103.79 48.3001 103.76 48.7301 103.7 49.2001C103.64 49.6701 103.55 50.1301 103.42 50.5701C103.29 51.0201 103.11 51.3601 102.87 51.6001C102.63 51.8401 102.29 52.0301 101.84 52.1701C101.39 52.3101 100.93 52.4101 100.47 52.4701C100 52.5301 99.57 52.5601 99.17 52.5701C98.77 52.5801 98.5 52.5801 98.37 52.5801C98.21 52.5801 97.93 52.5801 97.53 52.5701C97.13 52.5601 96.7 52.5201 96.23 52.4701C95.76 52.4101 95.3 52.3101 94.86 52.1701C94.41 52.0301 94.07 51.8401 93.83 51.6001C93.59 51.3601 93.41 51.0201 93.28 50.5701C93.15 50.1201 93.06 49.6601 93 49.2001C92.94 48.7301 92.91 48.3001 92.9 47.9001C92.89 47.5001 92.87 47.2301 92.85 47.0901V38.0501C92.87 37.9101 92.88 37.6401 92.9 37.2401C92.9 36.8401 92.94 36.4101 93 35.9401C93.06 35.4701 93.15 35.0201 93.28 34.5701C93.41 34.1201 93.59 33.7801 93.83 33.5401C94.07 33.3001 94.41 33.1201 94.86 32.9901C95.31 32.8601 95.76 32.7701 96.23 32.7101C96.7 32.6501 97.13 32.6101 97.53 32.5901C97.93 32.5701 98.21 32.5601 98.37 32.5601C98.51 32.5601 98.78 32.5601 99.17 32.5901C99.56 32.6201 100 32.6501 100.47 32.7101C100.94 32.7701 101.4 32.8701 101.84 32.9901C102.28 33.1101 102.63 33.3001 102.87 33.5401C103.11 33.7801 103.29 34.1201 103.42 34.5701C103.55 35.0201 103.64 35.4801 103.7 35.9401C103.76 36.4101 103.79 36.8401 103.8 37.2401C103.81 37.6401 103.82 37.9101 103.85 38.0501V47.0901ZM100.92 49.6601C101.06 49.5201 101.17 49.3401 101.25 49.1101C101.33 48.8801 101.39 48.6401 101.42 48.3801C101.45 48.1201 101.47 47.8801 101.48 47.6501C101.48 47.4201 101.49 47.2401 101.49 47.1001V38.0601C101.49 37.9401 101.49 37.7701 101.48 37.5401C101.47 37.3101 101.45 37.0701 101.42 36.8101C101.39 36.5501 101.33 36.3001 101.25 36.0601C101.17 35.8201 101.06 35.6301 100.92 35.4901C100.78 35.3501 100.58 35.2401 100.32 35.1601C100.06 35.0801 99.8 35.0301 99.54 34.9901C99.28 34.9601 99.04 34.9401 98.81 34.9301C98.58 34.9201 98.43 34.9201 98.35 34.9201C98.27 34.9201 98.11 34.9201 97.89 34.9301C97.67 34.9401 97.41 34.9601 97.14 34.9901C96.87 35.0201 96.61 35.0801 96.35 35.1601C96.09 35.2401 95.89 35.3501 95.75 35.4901C95.61 35.6301 95.5 35.8201 95.42 36.0601C95.34 36.3001 95.29 36.5501 95.26 36.8101C95.23 37.0701 95.21 37.3101 95.2 37.5401C95.19 37.7701 95.19 37.9401 95.19 38.0601V47.1001C95.19 47.2401 95.19 47.4201 95.2 47.6501C95.2 47.8801 95.23 48.1201 95.26 48.3801C95.29 48.6401 95.34 48.8801 95.42 49.1101C95.5 49.3401 95.61 49.5301 95.75 49.6601C95.89 49.8001 96.09 49.9101 96.35 49.9901C96.61 50.0701 96.87 50.1201 97.14 50.1601C97.41 50.1901 97.66 50.2101 97.89 50.2201C98.12 50.2301 98.27 50.2301 98.35 50.2301C98.43 50.2301 98.58 50.2301 98.81 50.2201C99.04 50.2101 99.28 50.1901 99.54 50.1601C99.8 50.1301 100.06 50.0701 100.32 49.9901C100.58 49.9101 100.78 49.8001 100.92 49.6601Z" fill="white"/>
    <path d="M166.16 38.3401C166.06 38.2401 165.88 38.1801 165.64 38.1601C165.39 38.1401 165.24 38.1301 165.18 38.1301C165.12 38.1301 164.96 38.1401 164.72 38.1601C164.47 38.1801 164.29 38.2401 164.16 38.3401C164.06 38.4401 164 38.6101 163.99 38.8401C163.98 39.0801 163.96 39.2301 163.94 39.3101V45.5201C163.94 45.9501 163.9 46.4201 163.83 46.9101C163.76 47.4001 163.67 47.8601 163.57 48.2901C163.47 48.7101 163.36 49.0901 163.25 49.4101C163.14 49.7401 163.04 49.9401 162.96 50.0201C162.8 50.1801 162.56 50.3101 162.25 50.4201C161.94 50.5301 161.63 50.5801 161.32 50.5801C161.01 50.5801 160.7 50.5301 160.39 50.4201C160.08 50.3101 159.85 50.1801 159.68 50.0201C159.6 49.9401 159.5 49.7401 159.39 49.4101C159.28 49.0801 159.16 48.7101 159.05 48.2901C158.94 47.8701 158.84 47.4101 158.77 46.9101C158.7 46.4201 158.66 45.9501 158.66 45.5201V39.3101C158.66 39.2301 158.65 39.0701 158.63 38.8401C158.61 38.6001 158.55 38.4401 158.44 38.3401C158.34 38.2401 158.16 38.1801 157.92 38.1601C157.67 38.1401 157.52 38.1301 157.46 38.1301C157.4 38.1301 157.24 38.1401 156.98 38.1601C156.72 38.1801 156.54 38.2401 156.44 38.3401C156.34 38.4401 156.28 38.6101 156.27 38.8401C156.26 39.0801 156.24 39.2301 156.22 39.3101V45.5201C156.22 46.2901 156.28 47.0301 156.41 47.7501C156.54 48.4701 156.69 49.1201 156.87 49.7001C157.06 50.2801 157.26 50.7901 157.47 51.2101C157.69 51.6301 157.89 51.9501 158.07 52.1401C158.23 52.3401 158.48 52.4901 158.8 52.5801C159.12 52.6801 159.45 52.7501 159.79 52.8001C160.13 52.8501 160.44 52.8801 160.73 52.8901C161.02 52.9001 161.21 52.9001 161.32 52.9001C161.43 52.9001 161.62 52.9001 161.91 52.8901C162.2 52.8901 162.51 52.8501 162.85 52.8001C163.19 52.7501 163.52 52.6801 163.84 52.5801C164.16 52.4801 164.4 52.3301 164.57 52.1401C164.73 51.9401 164.92 51.6301 165.14 51.2101C165.36 50.7901 165.56 50.2801 165.74 49.7001C165.93 49.1201 166.08 48.4701 166.2 47.7501C166.32 47.0301 166.39 46.2801 166.39 45.5201V39.3101C166.39 39.2301 166.38 39.0701 166.36 38.8401C166.34 38.6001 166.28 38.4401 166.17 38.3401H166.16Z" fill="white"/>
    <path d="M124.21 32.55C124.35 32.55 124.62 32.55 125.01 32.58C125.4 32.61 125.84 32.64 126.31 32.7C126.78 32.76 127.24 32.86 127.68 32.98C128.12 33.1 128.47 33.29 128.71 33.53C128.95 33.77 129.13 34.11 129.26 34.56C129.39 35.01 129.48 35.47 129.54 35.93C129.6 36.4 129.63 36.83 129.64 37.23C129.65 37.63 129.66 37.9 129.69 38.04V38.85C129.67 38.99 129.65 39.26 129.64 39.65C129.64 40.05 129.6 40.48 129.54 40.95C129.48 41.42 129.39 41.88 129.26 42.32C129.13 42.77 128.95 43.11 128.71 43.35C128.47 43.59 128.13 43.77 127.68 43.9C127.23 44.03 126.78 44.12 126.32 44.18L127.72 45.58C127.8 45.68 127.95 45.84 128.15 46.06C128.35 46.28 128.58 46.54 128.81 46.84C129.04 47.14 129.24 47.45 129.42 47.77C129.6 48.09 129.69 48.38 129.69 48.63V51.41C129.69 51.47 129.68 51.62 129.66 51.86C129.64 52.1 129.58 52.27 129.48 52.37C129.38 52.47 129.21 52.53 128.97 52.55C128.73 52.57 128.57 52.58 128.49 52.58C128.43 52.58 128.28 52.58 128.04 52.55C127.8 52.53 127.63 52.47 127.53 52.37C127.43 52.27 127.37 52.1 127.35 51.86C127.33 51.62 127.32 51.47 127.32 51.41V49.23C127.32 49.09 127.28 48.94 127.2 48.77C127.12 48.6 127.03 48.44 126.93 48.29C126.83 48.14 126.73 48.01 126.63 47.9C126.53 47.79 126.46 47.72 126.42 47.68L123.11 44.34H121.02V51.41C121.02 51.47 121.02 51.62 120.99 51.86C120.97 52.1 120.91 52.27 120.81 52.37C120.71 52.47 120.54 52.53 120.3 52.55C120.06 52.57 119.91 52.58 119.85 52.58C119.79 52.58 119.64 52.58 119.39 52.55C119.14 52.53 118.97 52.47 118.87 52.37C118.77 52.27 118.72 52.1 118.71 51.86C118.7 51.62 118.68 51.47 118.66 51.41V33.71C118.68 33.65 118.69 33.5 118.71 33.26C118.71 33.02 118.77 32.85 118.87 32.75C118.97 32.65 119.14 32.59 119.39 32.57C119.64 32.55 119.79 32.54 119.85 32.54H124.18L124.21 32.55ZM127.34 38.04C127.34 37.92 127.34 37.75 127.33 37.52C127.32 37.29 127.3 37.05 127.27 36.79C127.24 36.53 127.18 36.28 127.1 36.04C127.02 35.8 126.91 35.61 126.77 35.47C126.63 35.33 126.43 35.22 126.17 35.14C125.91 35.06 125.65 35.01 125.39 34.97C125.13 34.94 124.89 34.92 124.66 34.91C124.43 34.9 124.28 34.9 124.2 34.9H121.03V41.97H124.2C124.28 41.97 124.43 41.97 124.66 41.96C124.89 41.95 125.13 41.93 125.39 41.9C125.65 41.87 125.91 41.81 126.17 41.73C126.43 41.65 126.63 41.54 126.77 41.4C126.91 41.26 127.02 41.07 127.1 40.83C127.18 40.59 127.24 40.35 127.27 40.1C127.3 39.85 127.32 39.61 127.33 39.37C127.33 39.13 127.34 38.95 127.34 38.83V38.02V38.04Z" fill="white"/>
    <path d="M141.11 38.4301C141.29 38.6301 141.43 38.9001 141.53 39.2501C141.63 39.6001 141.7 39.9601 141.75 40.3301C141.8 40.7001 141.83 41.0401 141.84 41.3501C141.85 41.6601 141.85 41.8701 141.85 41.9901V42.5901C141.85 42.7101 141.85 42.9201 141.84 43.2301C141.83 43.5401 141.8 43.8801 141.75 44.2501C141.7 44.6201 141.63 44.9801 141.53 45.3201C141.43 45.6601 141.29 45.9301 141.11 46.1101C140.91 46.3101 140.64 46.4601 140.29 46.5601C139.94 46.6601 139.58 46.7301 139.21 46.7801C138.84 46.8301 138.51 46.8601 138.2 46.8701C137.89 46.8801 137.68 46.8801 137.56 46.8801H136.36C135.78 46.8801 135.33 46.7801 135.02 46.5801C134.71 46.3801 134.49 46.2201 134.39 46.1001L134.3 46.0101L134.27 46.0401C134.27 46.0401 134.31 46.1301 134.33 46.1901C134.37 46.3101 134.39 46.4101 134.39 46.4901V48.2501C134.39 48.3101 134.39 48.4101 134.4 48.5501C134.4 48.6901 134.42 48.8401 134.45 49.0101C134.47 49.1801 134.5 49.3401 134.54 49.5001C134.58 49.6601 134.65 49.7801 134.75 49.8601C134.83 49.9601 134.95 50.0301 135.12 50.0701C135.29 50.1101 135.45 50.1501 135.61 50.1701C135.77 50.2001 135.92 50.2101 136.06 50.2101H137.85C137.99 50.2101 138.14 50.2001 138.3 50.1701C138.46 50.1401 138.62 50.1001 138.78 50.0701C138.94 50.0301 139.07 49.9601 139.17 49.8601C139.25 49.7801 139.33 49.6101 139.41 49.3501C139.45 49.0901 139.54 48.9001 139.68 48.7801C139.8 48.6801 139.98 48.6401 140.22 48.6601C140.46 48.6801 140.62 48.6901 140.7 48.6901C140.76 48.7101 140.91 48.7401 141.15 48.7901C141.39 48.8401 141.56 48.9201 141.66 49.0401C141.74 49.1401 141.78 49.3101 141.78 49.5601C141.78 49.8101 141.78 49.9601 141.75 50.0201V50.0801C141.71 50.4401 141.64 50.7701 141.54 51.0701C141.44 51.3701 141.3 51.6101 141.12 51.7901C140.92 51.9901 140.65 52.1401 140.3 52.2401C139.95 52.3401 139.59 52.4101 139.22 52.4601C138.85 52.5101 138.52 52.5401 138.21 52.5501C137.9 52.5601 137.69 52.5601 137.57 52.5601H136.37C136.25 52.5601 136.04 52.5601 135.73 52.5501C135.42 52.5401 135.08 52.5101 134.71 52.4601C134.34 52.4101 133.98 52.3401 133.64 52.2401C133.29 52.1401 133.02 51.9901 132.82 51.7901C132.62 51.5901 132.47 51.3201 132.37 50.9701C132.27 50.6201 132.2 50.2601 132.16 49.8901C132.12 49.5201 132.1 49.1901 132.09 48.8701C132.08 48.5601 132.06 48.3501 132.04 48.2301V41.9601C132.06 41.8401 132.07 41.6301 132.09 41.3201C132.09 41.0101 132.12 40.6701 132.16 40.3001C132.2 39.9301 132.27 39.5701 132.37 39.2201C132.47 38.8701 132.62 38.6001 132.82 38.4001C133.02 38.2001 133.29 38.0501 133.64 37.9501C133.99 37.8501 134.34 37.7801 134.71 37.7301C135.08 37.6801 135.42 37.6501 135.73 37.6401C136.04 37.6301 136.25 37.6301 136.37 37.6301H137.57C137.69 37.6301 137.9 37.6301 138.21 37.6401C138.52 37.6501 138.86 37.6801 139.22 37.7301C139.59 37.7801 139.95 37.8501 140.3 37.9501C140.65 38.0501 140.92 38.2001 141.12 38.4001L141.11 38.4301ZM139.5 41.9801V41.6801C139.5 41.5401 139.5 41.3901 139.47 41.2301C139.45 41.0701 139.41 40.9101 139.37 40.7501C139.32 40.5901 139.26 40.4601 139.18 40.3601C139.08 40.2801 138.95 40.2201 138.79 40.1701C138.63 40.1201 138.47 40.0901 138.31 40.0701C138.15 40.0501 138 40.0401 137.86 40.0301C137.72 40.0301 137.62 40.0201 137.56 40.0201H136.36C136.3 40.0201 136.2 40.0201 136.06 40.0301C135.92 40.0401 135.77 40.0501 135.61 40.0701C135.45 40.0901 135.29 40.1301 135.12 40.1701C134.95 40.2201 134.83 40.2901 134.75 40.3601C134.65 40.4601 134.58 40.5901 134.54 40.7501C134.5 40.9101 134.47 41.0701 134.45 41.2301C134.43 41.3901 134.41 41.5401 134.4 41.6801C134.39 41.8201 134.39 41.9201 134.39 41.9801V42.5801C134.39 42.6401 134.39 42.7401 134.4 42.8801C134.4 43.0201 134.42 43.1701 134.45 43.3301C134.47 43.4901 134.5 43.6501 134.54 43.8201C134.58 43.9901 134.65 44.1101 134.75 44.1901C134.83 44.2701 134.95 44.3401 135.12 44.3801C135.29 44.4201 135.45 44.4701 135.61 44.4801C135.77 44.5001 135.92 44.5101 136.06 44.5101H137.85C137.99 44.5101 138.14 44.5101 138.3 44.4801C138.46 44.4601 138.62 44.4201 138.78 44.3801C138.94 44.3301 139.07 44.2701 139.17 44.1901C139.25 44.1101 139.31 43.9901 139.36 43.8201C139.41 43.6501 139.45 43.4901 139.46 43.3301C139.48 43.1701 139.49 43.0201 139.49 42.8801V41.9901L139.5 41.9801Z" fill="white"/>
    <path d="M153.29 38.4301C153.47 38.6301 153.61 38.9001 153.71 39.2501C153.81 39.6001 153.88 39.9601 153.93 40.3301C153.98 40.7001 154.01 41.0401 154.02 41.3501C154.03 41.6601 154.03 41.8701 154.03 41.9901V53.3601C154.03 53.4801 154.03 53.7001 154.02 54.0001C154.01 54.3001 153.98 54.6501 153.93 55.0101C153.88 55.3801 153.81 55.7401 153.71 56.0901C153.61 56.4401 153.47 56.7101 153.29 56.9101C153.09 57.1101 152.82 57.2601 152.47 57.3601C152.12 57.4601 151.76 57.5301 151.39 57.5801C151.02 57.6301 150.69 57.6601 150.38 57.6701C150.07 57.6801 149.86 57.6801 149.74 57.6801H149.14C149.02 57.6801 148.8 57.6801 148.5 57.6701C148.19 57.6701 147.85 57.6301 147.48 57.5801C147.11 57.5301 146.75 57.4601 146.4 57.3601C146.05 57.2601 145.78 57.1101 145.58 56.9101C145.4 56.7301 145.26 56.4901 145.16 56.1801C145.06 55.8701 144.99 55.5501 144.95 55.2101L144.92 55.1501C144.92 55.0701 144.92 54.9101 144.91 54.6701C144.9 54.4301 144.94 54.2501 145.04 54.1301C145.14 54.0301 145.31 53.9601 145.55 53.9101C145.79 53.8601 145.94 53.8201 146 53.8101C146.06 53.8101 146.21 53.8101 146.46 53.7801C146.71 53.7601 146.89 53.8001 147.01 53.9001C147.09 53.9601 147.15 54.0401 147.18 54.1501C147.21 54.2601 147.24 54.3601 147.28 54.4601C147.32 54.5601 147.36 54.6601 147.38 54.7601C147.4 54.8601 147.46 54.9301 147.51 54.9701C147.59 55.0701 147.71 55.1401 147.88 55.1801C148.05 55.2201 148.21 55.2601 148.37 55.2801C148.53 55.3101 148.68 55.3201 148.82 55.3201H150.01C150.15 55.3201 150.3 55.3101 150.46 55.2801C150.62 55.2501 150.78 55.2101 150.94 55.1801C151.1 55.1401 151.23 55.0701 151.33 54.9701C151.41 54.8901 151.47 54.7701 151.52 54.6101C151.57 54.4501 151.61 54.2801 151.62 54.1201C151.64 53.9501 151.65 53.8001 151.65 53.6601V52.2001C151.65 52.1201 151.67 52.0201 151.71 51.9001C151.73 51.8401 151.75 51.7901 151.77 51.7501V51.7201L151.65 51.8101C151.55 51.9101 151.35 52.0601 151.04 52.2701C150.73 52.4801 150.29 52.5801 149.71 52.5801H148.51C148.39 52.5801 148.18 52.5801 147.87 52.5701C147.56 52.5601 147.22 52.5301 146.85 52.4801C146.48 52.4301 146.12 52.3601 145.78 52.2601C145.43 52.1601 145.16 52.0101 144.96 51.8101C144.76 51.6101 144.61 51.3401 144.51 50.9901C144.41 50.6401 144.34 50.2801 144.3 49.9101C144.26 49.5401 144.24 49.2101 144.23 48.8901C144.22 48.5801 144.2 48.3701 144.18 48.2501V41.9801C144.2 41.8601 144.21 41.6501 144.23 41.3401C144.23 41.0301 144.26 40.6901 144.3 40.3201C144.34 39.9501 144.41 39.5901 144.51 39.2401C144.61 38.8901 144.76 38.6201 144.96 38.4201C145.16 38.2201 145.43 38.0701 145.78 37.9701C146.13 37.8701 146.48 37.8001 146.85 37.7501C147.22 37.7001 147.56 37.6701 147.87 37.6601C148.18 37.6501 148.39 37.6501 148.51 37.6501H149.71C149.83 37.6501 150.04 37.6501 150.35 37.6601C150.66 37.6701 151 37.7001 151.36 37.7501C151.73 37.8001 152.09 37.8701 152.44 37.9701C152.79 38.0701 153.06 38.2201 153.26 38.4201L153.29 38.4301ZM151.68 41.9801V41.6801C151.68 41.5401 151.68 41.3901 151.65 41.2201C151.63 41.0501 151.59 40.8901 151.55 40.7301C151.5 40.5701 151.44 40.4501 151.36 40.3701C151.26 40.2901 151.13 40.2301 150.97 40.1801C150.81 40.1301 150.65 40.0901 150.49 40.0601C150.33 40.0301 150.18 40.0201 150.04 40.0201H148.25C148.11 40.0201 147.96 40.0301 147.8 40.0601C147.64 40.0901 147.48 40.1301 147.31 40.1801C147.14 40.2301 147.02 40.3001 146.94 40.3701C146.84 40.4501 146.77 40.5701 146.73 40.7301C146.69 40.8901 146.66 41.0501 146.64 41.2201C146.62 41.3901 146.6 41.5501 146.59 41.6801C146.58 41.8101 146.58 41.9201 146.58 41.9801V48.2501C146.58 48.3101 146.58 48.4101 146.59 48.5501C146.59 48.6901 146.61 48.8401 146.64 49.0101C146.66 49.1801 146.69 49.3401 146.73 49.5001C146.77 49.6601 146.84 49.7801 146.94 49.8601C147.02 49.9601 147.14 50.0301 147.31 50.0701C147.48 50.1101 147.64 50.1501 147.8 50.1701C147.96 50.2001 148.11 50.2101 148.25 50.2101H150.04C150.18 50.2101 150.33 50.2001 150.49 50.1701C150.65 50.1401 150.81 50.1001 150.97 50.0701C151.13 50.0301 151.26 49.9601 151.36 49.8601C151.44 49.7801 151.5 49.6601 151.55 49.5001C151.6 49.3401 151.64 49.1801 151.65 49.0101C151.67 48.8401 151.68 48.6901 151.68 48.5501V41.9801Z" fill="white"/>
    <path d="M170.92 51.42C170.92 51.48 170.92 51.63 170.89 51.87C170.87 52.11 170.81 52.2801 170.71 52.3801C170.61 52.4801 170.44 52.5401 170.2 52.5601C169.96 52.5801 169.81 52.59 169.75 52.59C169.69 52.59 169.54 52.5901 169.3 52.5601C169.06 52.5401 168.88 52.4801 168.76 52.3801C168.66 52.2801 168.61 52.11 168.6 51.87C168.59 51.63 168.57 51.48 168.55 51.42V33.7201C168.57 33.6601 168.58 33.5101 168.6 33.2701C168.6 33.0301 168.66 32.86 168.76 32.76C168.88 32.66 169.06 32.6001 169.3 32.5801C169.54 32.5601 169.69 32.55 169.75 32.55C169.81 32.55 169.96 32.5501 170.2 32.5801C170.44 32.6101 170.61 32.66 170.71 32.76C170.81 32.86 170.87 33.0301 170.89 33.2701C170.91 33.5101 170.92 33.6601 170.92 33.7201V51.42Z" fill="white"/>
    <path d="M174.03 35.9699C173.97 35.9699 173.83 35.9599 173.61 35.9399C173.39 35.9199 173.22 35.8699 173.11 35.7699C173.02 35.6799 172.97 35.5199 172.96 35.2999C172.95 35.0699 172.93 34.9299 172.92 34.8499V33.0299C172.94 32.9599 172.95 32.8099 172.96 32.5799C172.96 32.3499 173.02 32.1999 173.11 32.0999C173.22 32.0099 173.39 31.9499 173.61 31.9299C173.84 31.9099 173.97 31.8999 174.03 31.8999C174.09 31.8999 174.23 31.8999 174.45 31.9299C174.67 31.9599 174.83 32.0099 174.93 32.0999C175.03 32.1899 175.08 32.3499 175.1 32.5799C175.12 32.7999 175.13 32.9499 175.13 33.0299V34.8499C175.13 34.9299 175.13 35.0699 175.1 35.2999C175.08 35.5199 175.02 35.6799 174.93 35.7699C174.84 35.8699 174.68 35.9199 174.45 35.9399C174.22 35.9599 174.09 35.9699 174.03 35.9699ZM177.7 35.9699C177.65 35.9699 177.5 35.9599 177.28 35.9399C177.06 35.9199 176.9 35.8699 176.8 35.7699C176.71 35.6799 176.65 35.5199 176.63 35.2999C176.61 35.0699 176.6 34.9299 176.6 34.8499V33.0299C176.6 32.9599 176.6 32.8099 176.63 32.5799C176.65 32.3499 176.7 32.1999 176.8 32.0999C176.9 31.9999 177.05 31.9499 177.28 31.9299C177.51 31.9099 177.64 31.8999 177.7 31.8999C177.78 31.8999 177.93 31.8999 178.15 31.9299C178.37 31.9599 178.53 32.0099 178.63 32.0999C178.73 32.1899 178.78 32.3499 178.8 32.5799C178.82 32.7999 178.83 32.9499 178.83 33.0299V34.8499C178.83 34.9299 178.83 35.0699 178.8 35.2999C178.78 35.5199 178.72 35.6799 178.63 35.7699C178.54 35.8699 178.38 35.9199 178.15 35.9399C177.92 35.9599 177.78 35.9699 177.7 35.9699Z" fill="white"/>
    <path d="M111.92 35.9699C111.86 35.9699 111.72 35.9599 111.5 35.9399C111.28 35.9199 111.11 35.8699 111 35.7699C110.91 35.6799 110.86 35.5199 110.85 35.2999C110.84 35.0699 110.82 34.9299 110.81 34.8499V33.0299C110.83 32.9599 110.84 32.8099 110.85 32.5799C110.85 32.3499 110.91 32.1999 111 32.0999C111.11 32.0099 111.28 31.9499 111.5 31.9299C111.73 31.9099 111.86 31.8999 111.92 31.8999C111.98 31.8999 112.12 31.8999 112.34 31.9299C112.56 31.9599 112.72 32.0099 112.82 32.0999C112.92 32.1899 112.97 32.3499 112.99 32.5799C113.01 32.7999 113.02 32.9499 113.02 33.0299V34.8499C113.02 34.9299 113.02 35.0699 112.99 35.2999C112.97 35.5199 112.91 35.6799 112.82 35.7699C112.73 35.8699 112.57 35.9199 112.34 35.9399C112.11 35.9599 111.98 35.9699 111.92 35.9699ZM115.59 35.9699C115.54 35.9699 115.39 35.9599 115.17 35.9399C114.95 35.9199 114.79 35.8699 114.69 35.7699C114.6 35.6799 114.54 35.5199 114.52 35.2999C114.5 35.0699 114.49 34.9299 114.49 34.8499V33.0299C114.49 32.9599 114.49 32.8099 114.52 32.5799C114.54 32.3499 114.59 32.1999 114.69 32.0999C114.79 31.9999 114.94 31.9499 115.17 31.9299C115.4 31.9099 115.53 31.8999 115.59 31.8999C115.67 31.8999 115.82 31.8999 116.04 31.9299C116.26 31.9599 116.42 32.0099 116.52 32.0999C116.62 32.1899 116.67 32.3499 116.69 32.5799C116.71 32.7999 116.72 32.9499 116.72 33.0299V34.8499C116.72 34.9299 116.72 35.0699 116.69 35.2999C116.67 35.5199 116.61 35.6799 116.52 35.7699C116.43 35.8699 116.27 35.9199 116.04 35.9399C115.81 35.9599 115.67 35.9699 115.59 35.9699Z" fill="white"/>
  </g>
  <defs>
    <clipPath id="clip0_1_4983">
      <rect width="179.02" height="57.58" fill="white"/>
    </clipPath>
  </defs>
</svg>
