<svg xmlns="http://www.w3.org/2000/svg" viewBox="0 0 184 80" fill="#fff"><path d="M55.2 32c-.2-.4-.5-.6-.9-.6l-17.9-.1a1 1 0 00-.7.3L23 44.3c-.3.3-.4.7-.2 1.1l4.5 10.7c.1.4.5.6.9.6l2.3.1h1.1a42 42 0 0028.1-12.3c.3-.3.4-.7.2-1.1L55.2 32zM31.5 54.7h-2.7l-4-9.4 11.8-11.9h16.7l4.2 10.1a38.7 38.7 0 01-26 11.2zM31.7 27.8l-5.3-12.6c-.2-.4-.5-.6-.9-.6h-16a1 1 0 00-.7.3c-7.9 7.4-10.7 17-7.5 24.7l.8 1.7c.2.3.5.5.9.5h15c.3 0 .5-.1.7-.3l12.6-12.7c.4-.2.5-.6.4-1zm-14 12h-14l-.4-.9C.4 32 2.9 23.4 9.8 16.5h14.9L29.5 28 17.7 39.8zM67 14.1l-.6-1.8C63.2 4.6 54.4-.1 43.5 0a1 1 0 00-.7.3L31.5 11.6c-.3.3-.4.7-.2 1.1l5.3 12.6c.2.4.5.6.9.6h18c.3 0 .5-.1.7-.3L66.8 15c.2-.1.3-.5.2-.9zM55 24H38.2l-4.8-11.4L43.9 2c9.8 0 17.7 4.2 20.6 11.1l.4 1L55 24zM82.1 55.3a.8.8 0 00-.5-.2h-1l-.6.2-.2.5V74.1l.2.5.6.2h1l.5-.2.2-.5V56.2v-.4l-.2-.5zM155.5 55.3a.8.8 0 00-.5-.2h-1l-.6.2-.2.5V74.1l.2.5.6.2h1l.5-.2.2-.5V56.2v-.4c0-.3-.1-.4-.2-.5zM96.3 62.8l-.2-1.1-.4-.8-.8-.4-1.1-.2-1-.1H90.2l-1 .1-1.1.2-.8.4-.5.8-.2 1.1-.1 1v7.5l.1 1 .2 1.1.5.8.8.4 1.1.2 1 .1h2.5l1-.1 1.1-.2.8-.4.4-.8.2-1.1.1-1v-6.9-.6-1zM94 64.4v7l-.1.5-.2.4-.4.2-.5.1H90l-.5-.1-.4-.2-.2-.4-.1-.5v-.5-6.5-.3-.4l.1-.5.2-.4.4-.2.5-.1h2.8l.5.1.4.2.2.4.1.5v.7zM183.9 62.8l-.2-1.1-.4-.8-.8-.4-1.1-.2-1-.1H177.8l-1 .1-1.1.2-.8.4-.5.8-.2 1.1-.1 1V71.2l.1 1 .2 1.1.5.8.8.4 1.1.2 1 .1H180.4l1-.1 1.1-.2.8-.4.4-.7.2-1v-.1-.5l-.1-.5-.5-.3-.5-.1h-.5l-.6.1-.3.6-.2.5-.4.2-.5.1h-2.8l-.5-.1-.4-.2-.2-.4-.1-.5v-.5-2l-.1-.3-.1-.1.1.1.6.5c.3.2.8.3 1.4.3h1.9l1-.1 1.1-.2.8-.4.4-.8.2-1.1.1-1v-1.2-.6c.3-.3.2-.7.2-1zm-2.3 1.6V65.7l-.1.5-.2.4-.4.2-.5.1h-2.8l-.5-.1-.4-.2-.2-.4-.1-.5v-.4V64.4v-.3-.4l.1-.5.2-.4.4-.2.5-.1h2.8l.5.1.4.2.2.4.1.5v.7zM77 55.3a.8.8 0 00-.5-.2H70.7l-1.3.1-1.4.3c-.5.1-.8.3-1.1.5l-.6 1-.3 1.4-.1 1.3v14.5l.2.5.5.2h1l.5-.2.2-.5V66h7.2l.5-.2.2-.5v-.4-.4L76 64a.8.8 0 00-.5-.2h-7.2v-3.1-.5l.1-.7.2-.7.3-.6.6-.3.8-.2.8-.1h5.4l.5-.2.2-.5v-.5-.4c0-.5-.1-.6-.2-.7zM169.7 60.3a.8.8 0 00-.5-.2h-1l-.6.2-.2.5v6.7l-.1 1.4-.3 1.4-.3 1.1-.3.6-.7.4-.9.2-.9-.2-.7-.4-.3-.6-.3-1.1-.3-1.4-.1-1.4v-6.2-.5l-.2-.5a.8.8 0 00-.5-.2h-1c-.3 0-.4.1-.5.2l-.2.5v6.7a15 15 0 001.3 5.7l.6.9.7.4 1 .2.9.1h1.2l.9-.1 1-.2c.3-.1.6-.2.7-.4l.6-.9.6-1.5.5-2 .2-2.2v-6.2-.5l-.3-.5zM115.5 60.3a.8.8 0 00-.5-.2h-1l-.5.2-.2.5V67.4l-.1 1.4-.3 1.4-.3 1.1-.3.6-.7.4-.9.2-.6-.2-.3-.4-.3-.6-.3-1.1-.3-1.4-.1-1.4v-6.2-.3l-.1-.5-.1-.1-.1-.1a.8.8 0 00-.5-.2h-.9l-.5.2-.2.5V67.3l-.1 1.4-.3 1.4-.3 1.1-.3.6-.3.4-.6.2-.9-.2-.7-.4-.3-.6-.3-1.1-.3-1.4-.1-1.4v-6.2-.4l-.2-.5a.8.8 0 00-.5-.2h-1c-.3 0-.4.1-.5.2l-.2.5V67.3a15 15 0 001.3 5.7l.6.9.7.4 1 .2.9.1h1.1l.7-.1.7-.2.6-.4.6-1 .6 1 .6.4.7.2.7.1h1.1l.9-.1 1-.2c.3-.1.6-.2.7-.4l.6-.9.6-1.5.5-2c.2-.8.2-1.5.2-2.2v-6.2-.4l-.4-.4zM149.2 62.8l-.2-1.1-.4-.8-.8-.4-1.1-.2-1-.1H143.1l-1 .1-1.1.2-.8.4-.4.7a3 3 0 00-.2 1v.5l.1.5.5.2.5.1h.5l.6-.1.2-.3.1-.3.1-.3.1-.2.4-.2.5-.1h2.8l.5.1.4.2.2.4.1.5v2l.1.3.1.1-.1-.1-.6-.5c-.3-.2-.8-.3-1.4-.3h-1.9l-1 .1-1.1.2-.8.4-.5.8-.2 1.1-.1 1v2.4l.1 1 .2 1.1.5.8.8.4 1.1.2 1 .1H146l1-.1 1.1-.2.8-.4.4-.8.2-1.1.1-1v-6.8-.6c-.3-.2-.3-.6-.4-.9zm-2.3 6.7v2l-.1.5-.2.4-.4.2-.5.1h-2.8l-.5-.1-.4-.2-.2-.4-.1-.5V71v-1.5-.3-.5l.1-.5.2-.4.4-.2.5-.1h2.8l.5.1.4.2.2.4.1.5v.8zM135 55.3a.8.8 0 00-.5-.2h-1l-.5.2-.2.5v2.8l-.1 1.7-.2 2.2-.3 2.4a52.8 52.8 0 01-.6 3.6l-.4 1.6-.5 1.3-.2.4-.2.3-.5.3h-.1-.1l-.2-.1-.5-.3-.3-.3-.2-.4c-.2-.2-.3-.7-.5-1.3l-.4-1.6-.3-1.5-.3-2.1-.3-2.4-.2-2.2-.1-1.7v-2.4-.4l-.2-.5a.8.8 0 00-.5-.2h-1l-.6.2-.2.5v2.8l.1 2 .2 2.5.3 2.4.2 1.9.3 1.6.5 1.8.6 1.5.6 1.2c.3.4.8.7 1.5 1.1l.6.3.8.2.8-.2.6-.3c.6-.3 1.1-.7 1.5-1.1l.7-1.2.5-1.5.5-1.8.3-1.6.2-1.9.3-2.4.2-2.5.1-2v-2.4-.4l-.2-.4zM104.3 49l.2 1.1.4.8.8.4 1.1.2 1 .1h2.4l1-.1 1.1-.2.8-.4.4-.7.2-1v-.1-.5l-.1-.5-.5-.3-.4-.1h-.5l-.5.1-.3.6-.2.5-.4.2-.5.1H107.7l-.5-.1-.4-.2-.2-.4-.1-.5v-.5-2l-.1-.3-.1-.1.1.1.6.5c.3.2.8.3 1.3.3H110.1l1-.1 1.1-.2.8-.4.4-.8.2-1.1.1-1v-1.2-.6l-.1-1-.2-1.1-.4-.8-.8-.4-1.1-.2-1-.1h-2.4l-1 .1-1.1.2-.8.4-.4.8-.2 1.1-.1 1V48l.2 1zm2.2-7.9v-.3-.4l.1-.5.2-.4.4-.2.5-.1H110.3l.5.1.4.2.2.4.1.5v2l-.1.5-.2.4-.4.2-.5.1H107.7l-.5-.1-.4-.2-.2-.4-.1-.5V42 41.1zM66.6 51.6h.4l.5-.2.2-.5V46.8l.1-.5.3-.5.3-.4.2-.2 1.8-1.8L73 46l.2.2.3.4.3.5.1.5v3.3l.2.5.5.2h.9l.5-.2.2-.5V47l-.3-.9-.6-.9-.7-.8-.4-.5-2.2-2.2 2.2-2.2.4-.5.7-.8.6-.9.3-.9v-3.5-.4L76 32a.8.8 0 00-.5-.2h-.9l-.5.2-.2.5v3.3l-.1.5-.3.5-.3.4-.2.2-5.4 5.4v-9.9-.4l-.2-.5a.8.8 0 00-.5-.2h-.8l-.5.2-.2.5V50.8l.2.5.5.2.5.1zM170.9 39.5l-.2-1.1-.4-.8-.8-.4-1.1-.2-1-.1H165l-1 .1-1.1.2-.8.4-.4.7a3 3 0 00-.2 1v.5l.1.5.5.2.4.1h.5l.5-.1.2-.3.1-.3.1-.3.1-.2.4-.2.5-.1H167.5l.5.1.4.2.2.4.1.5v2l.1.3.1.1-.1-.1-.6-.5c-.3-.2-.7-.3-1.3-.3H165.1l-1 .1-1.1.2-.8.4-.4.8-.2 1.1-.1 1v2.4l.1 1 .2 1.1.4.8.8.4 1.1.2 1 .1h2.4l1-.1 1.1-.2.8-.4.4-.8.2-1.1.1-1V41v-.6l-.2-.9zm-2.2 6.7v2l-.1.5-.2.4-.4.2-.5.1H164.9l-.5-.1-.4-.2-.2-.4-.1-.5v-.5-1.5-.3-.5l.1-.5.2-.4.4-.2.5-.1H167.5l.5.1.4.2.2.4.1.5v.8zM122.9 35.5l.5.2h.8l.5-.2.2-.5V33.8v-.5l-.2-.5a.8.8 0 00-.5-.2h-.8l-.5.2-.2.5V35l.2.5zM174.4 42.8l.2 1.1.4.8.8.4 1.1.2 1 .1H180.4l.5.1.4.2.2.4.1.5v1.5l-.1.5-.2.4-.4.2-.5.1H177.8l-.5-.1-.4-.2-.1-.2-.1-.3-.1-.3-.2-.3-.5-.1h-.5l-.4.1-.5.2-.1.5v.5l.2 1 .4.7.8.4 1.1.2 1 .1h2.4l1-.1 1.1-.2.8-.4.4-.8.2-1.1.1-1v-.6-.6l-.1-1-.2-1.1-.4-.8-.8-.4-1.1-.2-1-.1H177.8l-.5-.1-.4-.2-.2-.4-.1-.5v-.4-.3-.3-.5l.1-.5.2-.4.4-.2.5-.1H180.4l.5.1.4.2.1.2.1.3c0 .3.1.4.3.6l.5.1h.5l.4-.1.5-.2.1-.5v-.5l-.2-1-.4-.7-.8-.4-1.1-.2-1-.1h-2.4l-1 .1-1.1.2-.8.4-.4.8-.2 1.1-.1 1v1.2l.1 1zM87.7 51.3l.8-.4.4-.8.2-1.1.1-1v-6.8-.6l-.1-1-.2-1.1-.4-.8-.8-.4-1.1-.2-1-.1h-2.4l-1 .1-1.1.2-.8.4-.4.7a3 3 0 00-.2 1v.5l.1.5.5.2.4.1h.5l.5-.1.2-.3.1-.3.1-.3.1-.2.4-.2.5-.1H85.7l.5.1.4.2.2.4.1.5v2l.1.3.1.1-.1-.1-.6-.5c-.4-.2-.8-.3-1.4-.3H83.2l-1 .1-1.1.2-.8.4-.4.8-.2 1.1-.1 1v2.4l.1 1 .2 1.1.4.8.8.4 1.1.2 1 .1h2.4l1-.1c.4.1.8 0 1.1-.1zm-1.5-2.2l-.5.1H83.1l-.5-.1-.4-.2-.2-.4-.1-.5v-.5V46v-.3-.5l.1-.5.2-.4.4-.2.5-.1H85.7l.5.1.4.2.2.4.1.5V48l-.1.5-.2.4-.4.2zM124.3 51.6l.5-.2.2-.5V38v-.4l-.2-.5a.8.8 0 00-.5-.2h-.4-.4l-.5.2-.2.5v13.3l.2.5.5.2h.8zM137.9 39.5l-.2-1.1-.4-.8-.8-.4-1.1-.2-1-.1H132l-1 .1-1.1.2-.8.4-.4.8-.2 1.1-.1 1v10.4l.2.5.5.2h.9l.5-.2.2-.5v-9.8-.3-.4l.1-.5.2-.4.4-.2.5-.1H134.5l.5.1.4.2.2.4.1.5v10.5l.2.5.5.2h.8l.5-.2.2-.5v-9.8-.6-1zM99.8 39.7l.1.3.1.3.2.3.5.1h.5l.4-.1.5-.2.1-.5v-.5l-.2-1-.4-.7-.8-.4-1.1-.2-1-.1h-2.5l-1 .1-1.1.2-.8.4-.4.8-.2 1.1-.1 1V51l.2.5.5.2h.9l.5-.2.2-.5v-9.8-.3-.5l.1-.5.2-.4.4-.2.5-.1H98.8l.5.1.4.2.1.2zM119.2 32a.8.8 0 00-.5-.2h-.4-.4l-.5.2-.2.5V50.8l.2.5.5.2h.8l.5-.2.2-.5V32.9v-.4c0-.3-.1-.4-.2-.5zM157.9 40.6l-.5-.2h-4.9l-.5.2-.2.5v.8l.2.5.5.2h3.2v4l-.1.7-.2.7-.3.5-.6.3-.8.2-.7.1h-1l-.7-.1-.8-.2-.6-.3-.3-.5-.2-.7-.1-.7v-9.5-.5l.1-.7.2-.7.3-.6.6-.3.8-.2.7-.1h2.4l.5.1.4.2c.1.1.2.2.2.5l.1.3.2.3.5.1h.5l.4-.1.5-.2.1-.5v-.4l-.2-1.1-.4-.7-.8-.4-1.1-.2-1-.1H151.7l-1.3.1-1.4.3-1 .5-.5 1-.3 1.4-.1 1.3V47l.1 1.3.3 1.4.5 1 1 .6 1.4.3 1.3.1h1.6l1.3-.1 1.4-.3c.4-.1.8-.3 1-.6l.5-1 .3-1.4.1-1.3v-5.5-.4c.2-.3.1-.4 0-.5z"/></svg>