<svg width="186" height="60" viewBox="0 0 186 60" fill="none" xmlns="http://www.w3.org/2000/svg">
  <g clip-path="url(#clip0_1_5031)">
    <path d="M130.84 36.58C130.78 36.12 130.69 35.66 130.56 35.22C130.43 34.78 130.25 34.43 130.01 34.2C129.77 33.96 129.43 33.78 128.99 33.65C128.55 33.52 128.09 33.43 127.63 33.37C127.17 33.31 126.74 33.27 126.34 33.25C125.94 33.23 125.68 33.22 125.54 33.22H121.24C121.18 33.22 121.03 33.23 120.8 33.25C120.56 33.27 120.39 33.33 120.27 33.43C120.17 33.53 120.12 33.7 120.11 33.93C120.1 34.17 120.08 34.32 120.07 34.37V51.93C120.09 51.99 120.1 52.14 120.11 52.37C120.11 52.61 120.17 52.77 120.27 52.87C120.39 52.97 120.57 53.03 120.8 53.05C121.04 53.07 121.19 53.08 121.24 53.08C121.29 53.08 121.45 53.08 121.68 53.05C121.92 53.03 122.08 52.97 122.18 52.87C122.28 52.77 122.34 52.6 122.36 52.37C122.38 52.13 122.39 51.98 122.39 51.93V44.91H125.53C125.67 44.89 125.93 44.88 126.33 44.87C126.73 44.87 127.15 44.83 127.62 44.77C128.08 44.71 128.54 44.62 128.98 44.49C129.42 44.36 129.77 44.18 130 43.94C130.24 43.7 130.42 43.36 130.55 42.92C130.68 42.48 130.77 42.02 130.83 41.56C130.89 41.1 130.92 40.67 130.93 40.27C130.93 39.88 130.95 39.61 130.97 39.47V38.67C130.95 38.53 130.94 38.27 130.93 37.87C130.92 37.48 130.89 37.05 130.83 36.58H130.84ZM128.65 39.47C128.65 39.59 128.65 39.77 128.64 40C128.63 40.24 128.61 40.48 128.58 40.73C128.55 40.98 128.5 41.22 128.42 41.46C128.34 41.7 128.23 41.88 128.09 42.02C127.95 42.16 127.75 42.27 127.5 42.35C127.24 42.43 126.99 42.48 126.73 42.51C126.47 42.54 126.23 42.56 126 42.57C125.77 42.58 125.62 42.58 125.54 42.58H122.4V35.56H125.54C125.62 35.56 125.77 35.56 126 35.57C126.23 35.57 126.47 35.6 126.73 35.63C126.99 35.66 127.24 35.71 127.5 35.79C127.76 35.87 127.95 35.98 128.09 36.12C128.23 36.26 128.34 36.45 128.42 36.68C128.5 36.92 128.55 37.16 128.58 37.42C128.61 37.68 128.63 37.92 128.64 38.15C128.64 38.38 128.65 38.55 128.65 38.67V39.47Z" fill="white"/>
    <path d="M135.95 53.1499C136.32 53.1999 136.65 53.2299 136.96 53.2399C137.27 53.2499 137.48 53.2499 137.6 53.2499H138.79C138.91 53.2499 139.12 53.2499 139.43 53.2399C139.74 53.2399 140.07 53.1999 140.44 53.1499C140.81 53.0999 141.16 53.0299 141.51 52.9299C141.86 52.8299 142.13 52.6799 142.33 52.4899C142.51 52.3099 142.64 52.0799 142.74 51.7799C142.84 51.4799 142.91 51.1599 142.95 50.7999V50.7399C142.97 50.6799 142.98 50.5299 142.98 50.2799C142.98 50.0299 142.94 49.8599 142.86 49.7599C142.76 49.6399 142.59 49.5599 142.36 49.5099C142.12 49.4599 141.97 49.4299 141.92 49.4099C141.84 49.4099 141.68 49.4099 141.45 49.3799C141.21 49.3599 141.03 49.3999 140.92 49.4999C140.78 49.6199 140.69 49.8099 140.65 50.0599C140.57 50.3199 140.49 50.4799 140.41 50.5599C140.31 50.6599 140.18 50.7299 140.02 50.7699C139.86 50.8099 139.7 50.8399 139.55 50.8699C139.39 50.8999 139.24 50.9099 139.11 50.9099H137.33C137.19 50.9099 137.04 50.8899 136.89 50.8699C136.74 50.8499 136.57 50.8099 136.4 50.7699C136.23 50.7299 136.11 50.6599 136.03 50.5599C135.93 50.4799 135.86 50.3599 135.82 50.1999C135.78 50.0399 135.75 49.8799 135.73 49.7099C135.71 49.5399 135.7 49.3899 135.69 49.2499C135.68 49.1099 135.68 49.0099 135.68 48.9499V47.1999C135.68 47.1199 135.66 47.0199 135.62 46.8999C135.6 46.8399 135.58 46.7899 135.56 46.7499L135.59 46.7199L135.68 46.8099C135.78 46.9299 135.99 47.0899 136.3 47.2799C136.62 47.4799 137.06 47.5799 137.63 47.5799H138.82C138.94 47.5799 139.15 47.5799 139.46 47.5699C139.77 47.5699 140.1 47.5299 140.47 47.4799C140.84 47.4299 141.19 47.3599 141.54 47.2599C141.89 47.1599 142.16 47.0099 142.36 46.8199C142.54 46.6399 142.67 46.3799 142.77 46.0399C142.87 45.6899 142.94 45.3399 142.99 44.9699C143.04 44.6099 143.07 44.2699 143.08 43.9599C143.08 43.6499 143.1 43.4399 143.1 43.3199V42.7299C143.1 42.6099 143.1 42.3999 143.08 42.0899C143.08 41.7799 143.04 41.4499 142.99 41.0799C142.94 40.7199 142.87 40.3599 142.77 40.0099C142.67 39.6599 142.53 39.3899 142.36 39.1999C142.16 38.9999 141.89 38.8499 141.54 38.7599C141.19 38.6599 140.84 38.5899 140.47 38.5399C140.1 38.4899 139.77 38.4599 139.46 38.4499C139.15 38.4499 138.94 38.4399 138.82 38.4399H137.63C137.51 38.4399 137.3 38.4399 136.99 38.4499C136.68 38.4599 136.35 38.4899 135.98 38.5399C135.61 38.5899 135.26 38.6599 134.91 38.7599C134.56 38.8599 134.29 39.0099 134.1 39.1999C133.9 39.3999 133.75 39.6699 133.66 40.0099C133.56 40.3499 133.49 40.7099 133.45 41.0799C133.41 41.4499 133.39 41.7799 133.38 42.0899C133.37 42.3999 133.36 42.6099 133.34 42.7299V48.9499C133.36 49.0699 133.37 49.2799 133.38 49.5899C133.39 49.8999 133.41 50.2299 133.45 50.5999C133.49 50.9699 133.56 51.3199 133.66 51.6699C133.76 52.0199 133.91 52.2899 134.1 52.4799C134.3 52.6799 134.57 52.8299 134.91 52.9199C135.26 53.0199 135.61 53.0899 135.98 53.1399L135.95 53.1499ZM135.64 42.7399C135.64 42.6799 135.64 42.5799 135.65 42.4399C135.65 42.2999 135.67 42.1499 135.69 41.9999C135.71 41.8399 135.74 41.6799 135.78 41.5299C135.82 41.3699 135.89 41.2399 135.99 41.1399C136.07 41.0599 136.19 40.9999 136.36 40.9499C136.53 40.8999 136.69 40.8699 136.85 40.8499C137.01 40.8299 137.16 40.8199 137.29 40.8099C137.43 40.8099 137.53 40.7999 137.59 40.7999H138.78C138.84 40.7999 138.94 40.7999 139.08 40.8099C139.22 40.8099 139.37 40.8299 139.52 40.8499C139.68 40.8699 139.84 40.8999 139.99 40.9499C140.15 40.9999 140.28 41.0599 140.38 41.1399C140.46 41.2399 140.52 41.3699 140.57 41.5299C140.62 41.6899 140.65 41.8499 140.67 41.9999C140.69 42.1599 140.7 42.3099 140.7 42.4399V43.6199C140.7 43.7599 140.69 43.9099 140.67 44.0599C140.65 44.2199 140.62 44.3799 140.57 44.5499C140.52 44.7199 140.46 44.8399 140.38 44.9199C140.28 44.9999 140.15 45.0599 139.99 45.1099C139.83 45.1599 139.67 45.1899 139.52 45.2099C139.36 45.2299 139.21 45.2399 139.08 45.2399H137.3C137.16 45.2399 137.01 45.2399 136.86 45.2099C136.7 45.1899 136.54 45.1599 136.37 45.1099C136.2 45.0599 136.08 44.9999 136 44.9199C135.9 44.8399 135.83 44.7199 135.79 44.5499C135.75 44.3799 135.72 44.2199 135.7 44.0599C135.68 43.8999 135.67 43.7499 135.66 43.6199C135.65 43.4799 135.65 43.3799 135.65 43.3199V42.7299L135.64 42.7399Z" fill="white"/>
    <path d="M150.58 40.79C150.73 40.79 151.13 40.78 151.78 40.76C152.42 40.74 152.87 40.68 153.13 40.58C153.39 40.48 153.53 40.31 153.55 40.08C153.58 39.84 153.62 39.7 153.67 39.64C153.62 39.58 153.58 39.43 153.55 39.2C153.52 38.96 153.38 38.79 153.13 38.67C152.87 38.57 152.42 38.52 151.78 38.51C151.14 38.51 150.74 38.49 150.58 38.47H148.57C148.42 38.49 148.03 38.5 147.41 38.51C147.32 38.51 147.23 38.51 147.15 38.51C147.11 38.51 147.07 38.49 147.03 38.49C146.79 38.47 146.64 38.46 146.58 38.46C146.52 38.46 146.37 38.47 146.14 38.49C145.9 38.51 145.72 38.57 145.61 38.67C145.51 38.77 145.46 38.94 145.45 39.17C145.45 39.41 145.42 39.56 145.41 39.61V52.1C145.43 52.16 145.44 52.31 145.45 52.54C145.46 52.78 145.51 52.94 145.61 53.04C145.73 53.14 145.91 53.2 146.14 53.22C146.38 53.24 146.52 53.25 146.58 53.25C146.64 53.25 146.79 53.25 147.03 53.22C147.27 53.2 147.43 53.14 147.53 53.04C147.63 52.94 147.69 52.77 147.71 52.54C147.73 52.3 147.74 52.15 147.74 52.1V40.77C148.17 40.78 148.45 40.79 148.57 40.79H150.58Z" fill="white"/>
    <path d="M175.7 53.22C175.94 53.24 176.09 53.25 176.14 53.25C176.19 53.25 176.35 53.25 176.6 53.22C176.85 53.2 177.02 53.14 177.12 53.04C177.22 52.94 177.27 52.77 177.28 52.54C177.29 52.3 177.3 52.15 177.32 52.1L176.54 42.74C176.52 42.62 176.51 42.41 176.5 42.1C176.49 41.79 176.47 41.46 176.43 41.09C176.39 40.72 176.32 40.37 176.22 40.02C176.12 39.67 175.97 39.4 175.78 39.21C175.58 39.01 175.31 38.86 174.96 38.77C174.61 38.67 174.26 38.6 173.89 38.55C173.52 38.5 171.35 38.5 170.98 38.55C170.61 38.6 170.26 38.67 169.91 38.77C169.56 38.87 169.29 39.02 169.09 39.21C168.91 39.41 168.77 39.68 168.68 40.02C168.58 40.37 168.51 40.72 168.46 41.09C168.41 41.45 168.38 41.79 168.37 42.1C168.37 42.41 168.36 42.62 168.36 42.74L167.58 52.1C167.58 52.16 167.59 52.31 167.61 52.54C167.63 52.78 167.69 52.94 167.79 53.04C167.89 53.14 168.06 53.2 168.29 53.22C168.53 53.24 168.67 53.25 168.73 53.25C168.79 53.25 168.94 53.25 169.17 53.22C169.41 53.2 169.59 53.14 169.7 53.04C169.8 52.94 169.85 52.77 169.86 52.54C169.87 52.3 169.89 52.15 169.9 52.1L170.68 42.74V42.44C170.68 42.3 170.69 42.15 170.71 41.98C170.73 41.81 170.76 41.65 170.81 41.49C170.86 41.33 170.92 41.21 171 41.13C171.1 41.03 171.23 40.9599 171.38 40.92C171.54 40.88 172.8 40.79 172.96 40.82C173.12 40.85 173.28 40.88 173.45 40.92C173.62 40.9599 173.74 41.03 173.82 41.13C173.92 41.21 173.99 41.33 174.03 41.49C174.07 41.65 174.1 41.81 174.12 41.98C174.14 42.15 174.15 42.3 174.16 42.44C174.17 42.58 174.18 42.68 174.18 42.74L174.96 52.1C174.96 52.16 174.96 52.31 174.99 52.54C175.01 52.78 175.07 52.94 175.17 53.04C175.27 53.14 175.44 53.2 175.67 53.22H175.7Z" fill="white"/>
    <path d="M163.22 57.9899C163.57 57.8899 163.84 57.7399 164.04 57.5499C164.22 57.3499 164.36 57.0799 164.45 56.7399C164.55 56.3899 164.62 56.0399 164.67 55.6699C164.72 55.2999 164.75 54.9699 164.76 54.6599C164.76 54.3499 164.78 54.1399 164.78 54.0199V39.5999C164.78 39.5399 164.77 39.3899 164.75 39.1599C164.73 38.9199 164.67 38.7599 164.57 38.6599C164.47 38.5599 164.3 38.4999 164.07 38.4799C163.83 38.4599 163.68 38.4499 163.63 38.4499C163.58 38.4499 163.42 38.4599 163.19 38.4799C162.95 38.4999 162.78 38.5599 162.66 38.6599C162.56 38.7599 162.51 38.9299 162.5 39.1599C162.49 39.3999 162.47 39.5499 162.46 39.5999V49.2499C162.46 49.3899 162.45 49.5399 162.43 49.7099C162.41 49.8799 162.38 50.0399 162.33 50.1999C162.28 50.3599 162.22 50.4799 162.14 50.5599C162.04 50.6599 161.91 50.7299 161.75 50.7699C161.59 50.8099 161.43 50.8399 161.28 50.8699C161.12 50.8999 160.97 50.9099 160.84 50.9099H159.06C158.92 50.9099 158.77 50.8899 158.62 50.8699C158.46 50.8399 158.3 50.8099 158.13 50.7699C157.96 50.7299 157.84 50.6599 157.76 50.5599C157.66 50.4799 157.59 50.3599 157.55 50.1999C157.51 50.0399 157.48 49.8799 157.46 49.7099C157.44 49.5399 157.43 49.3899 157.42 49.2499C157.41 49.1099 157.41 49.0099 157.41 48.9499V39.5899C157.41 39.5299 157.4 39.3799 157.38 39.1499C157.36 38.9099 157.3 38.7499 157.2 38.6499C157.1 38.5499 156.93 38.4899 156.7 38.4699C156.46 38.4499 156.31 38.4399 156.26 38.4399C156.21 38.4399 156.05 38.4499 155.8 38.4699C155.55 38.4899 155.38 38.5499 155.28 38.6499C155.18 38.7499 155.13 38.9199 155.12 39.1499C155.11 39.3899 155.1 39.5399 155.08 39.5899V48.9499C155.1 49.0699 155.11 49.2799 155.12 49.5899C155.12 49.8999 155.15 50.2299 155.19 50.5999C155.23 50.9599 155.3 51.3199 155.4 51.6699C155.5 52.0199 155.65 52.2899 155.84 52.4799C156.04 52.6799 156.31 52.8299 156.65 52.9199C157 53.0199 157.35 53.0899 157.72 53.1399C158.08 53.1899 158.42 53.2199 158.73 53.2299C159.04 53.2399 159.25 53.2399 159.37 53.2399H160.56C161.13 53.2399 161.57 53.1399 161.88 52.9299C162.19 52.7199 162.39 52.5699 162.49 52.4699L162.58 52.3799L162.61 52.4099C162.61 52.4099 162.57 52.4999 162.55 52.5599C162.51 52.6799 162.49 52.7799 162.49 52.8599V54.3099C162.49 54.4499 162.48 54.5999 162.46 54.7699C162.44 54.9399 162.41 55.0999 162.36 55.2599C162.31 55.4199 162.25 55.5399 162.17 55.6199C162.07 55.7199 161.94 55.7899 161.78 55.8299C161.62 55.8699 161.46 55.8999 161.31 55.9299C161.15 55.9599 161 55.9699 160.87 55.9699H159.68C159.54 55.9699 159.39 55.9599 159.24 55.9299C159.08 55.8999 158.92 55.8699 158.75 55.8299C158.58 55.7899 158.46 55.7199 158.38 55.6199C158.26 55.5199 158.18 55.3499 158.14 55.1199C158.1 55.0199 158.06 54.9199 158.02 54.8099C157.98 54.6999 157.93 54.6199 157.87 54.5599C157.75 54.4599 157.57 54.4199 157.32 54.4399C157.07 54.4599 156.92 54.4699 156.86 54.4699C156.8 54.4899 156.65 54.5199 156.4 54.5699C156.15 54.6199 155.98 54.6899 155.88 54.7899C155.78 54.9099 155.74 55.0899 155.76 55.3399C155.78 55.5899 155.79 55.7399 155.79 55.7999L155.82 55.8599C155.86 56.1999 155.93 56.5199 156.03 56.8199C156.13 57.1199 156.27 57.3699 156.45 57.5499C156.65 57.7499 156.92 57.8899 157.27 57.9899C157.62 58.0899 157.97 58.1599 158.34 58.2099C158.71 58.2599 159.04 58.2899 159.35 58.2999C159.66 58.2999 159.87 58.3099 159.99 58.3099H160.58C160.7 58.3099 160.91 58.3099 161.22 58.2999C161.53 58.2899 161.86 58.2599 162.23 58.2099C162.6 58.1599 162.95 58.0899 163.3 57.9899H163.22Z" fill="white"/>
    <path d="M57.96 33.46C57.8 33.08 57.43 32.83 57.01 32.83L39.15 32.78C38.87 32.78 38.61 32.89 38.41 33.08L25.78 45.75C25.49 46.04 25.4 46.48 25.56 46.86L30.02 57.51C30.17 57.87 30.51 58.11 30.9 58.14C31.68 58.19 32.46 58.22 33.23 58.22C33.6 58.22 33.98 58.22 34.35 58.21C44.65 57.93 55.44 53.22 62.5 45.92C62.78 45.63 62.87 45.19 62.71 44.82L57.95 33.46H57.96ZM34.3 56.17C33.95 56.18 33.59 56.18 33.24 56.18C32.73 56.18 32.21 56.16 31.68 56.14L27.73 46.7L39.58 34.82L56.32 34.87L60.55 44.97C53.84 51.63 43.85 55.9 34.3 56.16V56.17Z" fill="white"/>
    <path d="M34.48 29.2299L29.18 16.5799C29.02 16.1999 28.65 15.9499 28.23 15.9499L12.2 15.8999C11.93 15.8999 11.67 15.9999 11.48 16.1899C3.69997 23.7699 0.889969 33.2999 4.13997 41.0699C4.37997 41.6399 4.64997 42.1999 4.94997 42.7499C5.12997 43.0799 5.46997 43.2799 5.84997 43.2799L20.89 43.3199C20.89 43.3199 20.91 43.3199 20.92 43.3199C21.19 43.3199 21.44 43.2099 21.62 43.0199L34.25 30.3499C34.54 30.0599 34.63 29.6199 34.47 29.2399L34.48 29.2299ZM20.47 41.2699L6.47997 41.2299C6.31997 40.9199 6.17997 40.5999 6.03997 40.2799C3.15997 33.3999 5.67997 24.8799 12.62 17.9599L27.54 17.9999L32.31 29.3899L20.47 41.2699Z" fill="white"/>
    <path d="M69.85 15.56C69.67 14.97 69.46 14.38 69.23 13.8C65.98 6.04001 57.19 1.29001 46.29 1.43001C46.02 1.43001 45.76 1.54001 45.57 1.73001L34.29 13.04C34 13.33 33.91 13.77 34.07 14.15L39.37 26.8C39.53 27.18 39.9 27.43 40.32 27.43L58.28 27.48C58.28 27.48 58.3 27.48 58.31 27.48C58.57 27.48 58.83 27.36 59.01 27.18L69.59 16.57C69.85 16.31 69.95 15.92 69.85 15.56ZM57.85 25.44L41.01 25.39L36.24 14L46.74 3.47001C56.58 3.47001 64.45 7.71001 67.33 14.59C67.46 14.91 67.59 15.24 67.7 15.57L57.86 25.44H57.85Z" fill="white"/>
    <path d="M78.39 47.74C78.37 47.88 78.35 48.15 78.34 48.55C78.33 48.95 78.3 49.38 78.24 49.85C78.18 50.32 78.09 50.78 77.96 51.22C77.83 51.67 77.65 52.01 77.41 52.25C77.17 52.49 76.83 52.68 76.38 52.82C75.93 52.96 75.47 53.06 75.01 53.12C74.54 53.18 74.11 53.21 73.71 53.22C73.31 53.23 73.04 53.23 72.91 53.23C72.75 53.23 72.47 53.23 72.07 53.22C71.67 53.21 71.24 53.17 70.77 53.12C70.3 53.06 69.84 52.96 69.4 52.82C68.95 52.68 68.61 52.49 68.37 52.25C68.13 52.01 67.95 51.67 67.82 51.22C67.69 50.77 67.6 50.31 67.54 49.85C67.48 49.38 67.45 48.95 67.44 48.55C67.43 48.15 67.41 47.88 67.39 47.74V38.7C67.41 38.56 67.42 38.29 67.44 37.89C67.44 37.49 67.48 37.06 67.54 36.59C67.6 36.12 67.69 35.67 67.82 35.22C67.95 34.77 68.13 34.43 68.37 34.19C68.61 33.95 68.95 33.77 69.4 33.64C69.85 33.51 70.3 33.42 70.77 33.36C71.24 33.3 71.67 33.26 72.07 33.24C72.47 33.22 72.75 33.21 72.91 33.21C73.05 33.21 73.32 33.21 73.71 33.24C74.1 33.27 74.54 33.3 75.01 33.36C75.48 33.42 75.94 33.52 76.38 33.64C76.82 33.76 77.17 33.95 77.41 34.19C77.65 34.43 77.83 34.77 77.96 35.22C78.09 35.67 78.18 36.13 78.24 36.59C78.3 37.06 78.33 37.49 78.34 37.89C78.35 38.29 78.36 38.56 78.39 38.7V47.74ZM75.46 50.31C75.6 50.17 75.71 49.99 75.79 49.76C75.87 49.53 75.93 49.29 75.96 49.03C75.99 48.77 76.01 48.53 76.02 48.3C76.02 48.07 76.03 47.89 76.03 47.75V38.71C76.03 38.59 76.03 38.42 76.02 38.19C76.01 37.96 75.99 37.72 75.96 37.46C75.93 37.2 75.87 36.95 75.79 36.71C75.71 36.47 75.6 36.28 75.46 36.14C75.32 36 75.12 35.89 74.86 35.81C74.6 35.73 74.34 35.68 74.08 35.64C73.82 35.61 73.58 35.59 73.35 35.58C73.12 35.57 72.97 35.57 72.89 35.57C72.81 35.57 72.65 35.57 72.43 35.58C72.21 35.59 71.95 35.61 71.68 35.64C71.41 35.67 71.15 35.73 70.89 35.81C70.63 35.89 70.43 36 70.29 36.14C70.15 36.28 70.04 36.47 69.96 36.71C69.88 36.95 69.83 37.2 69.8 37.46C69.77 37.72 69.75 37.96 69.74 38.19C69.73 38.42 69.73 38.59 69.73 38.71V47.75C69.73 47.89 69.73 48.07 69.74 48.3C69.74 48.53 69.77 48.77 69.8 49.03C69.83 49.29 69.88 49.53 69.96 49.76C70.04 49.99 70.15 50.18 70.29 50.31C70.43 50.45 70.63 50.56 70.89 50.64C71.15 50.72 71.41 50.77 71.68 50.81C71.95 50.84 72.2 50.86 72.43 50.87C72.66 50.88 72.81 50.88 72.89 50.88C72.97 50.88 73.12 50.88 73.35 50.87C73.58 50.86 73.82 50.84 74.08 50.81C74.34 50.78 74.6 50.72 74.86 50.64C75.12 50.56 75.32 50.45 75.46 50.31Z" fill="white"/>
    <path d="M91.73 47.74C91.71 47.88 91.69 48.15 91.68 48.55C91.67 48.95 91.64 49.38 91.58 49.85C91.52 50.32 91.43 50.78 91.3 51.22C91.17 51.67 90.99 52.01 90.75 52.25C90.51 52.49 90.17 52.68 89.72 52.82C89.27 52.96 88.81 53.06 88.35 53.12C87.88 53.18 87.45 53.21 87.05 53.22C86.65 53.23 86.38 53.23 86.25 53.23C86.09 53.23 85.81 53.23 85.41 53.22C85.01 53.21 84.58 53.17 84.11 53.12C83.64 53.06 83.18 52.96 82.74 52.82C82.29 52.68 81.95 52.49 81.71 52.25C81.47 52.01 81.29 51.67 81.16 51.22C81.03 50.77 80.94 50.31 80.88 49.85C80.82 49.38 80.79 48.95 80.78 48.55C80.77 48.15 80.75 47.88 80.73 47.74V38.7C80.75 38.56 80.76 38.29 80.78 37.89C80.78 37.49 80.82 37.06 80.88 36.59C80.94 36.12 81.03 35.67 81.16 35.22C81.29 34.77 81.47 34.43 81.71 34.19C81.95 33.95 82.29 33.77 82.74 33.64C83.19 33.51 83.64 33.42 84.11 33.36C84.58 33.3 85.01 33.26 85.41 33.24C85.81 33.22 86.09 33.21 86.25 33.21C86.39 33.21 86.66 33.21 87.05 33.24C87.44 33.27 87.88 33.3 88.35 33.36C88.82 33.42 89.28 33.52 89.72 33.64C90.16 33.76 90.51 33.95 90.75 34.19C90.99 34.43 91.17 34.77 91.3 35.22C91.43 35.67 91.52 36.13 91.58 36.59C91.64 37.06 91.67 37.49 91.68 37.89C91.69 38.29 91.7 38.56 91.73 38.7V47.74ZM88.8 50.31C88.94 50.17 89.05 49.99 89.13 49.76C89.21 49.53 89.27 49.29 89.3 49.03C89.33 48.77 89.35 48.53 89.36 48.3C89.36 48.07 89.37 47.89 89.37 47.75V38.71C89.37 38.59 89.37 38.42 89.36 38.19C89.35 37.96 89.33 37.72 89.3 37.46C89.27 37.2 89.21 36.95 89.13 36.71C89.05 36.47 88.94 36.28 88.8 36.14C88.66 36 88.46 35.89 88.2 35.81C87.94 35.73 87.68 35.68 87.42 35.64C87.16 35.61 86.92 35.59 86.69 35.58C86.46 35.57 86.31 35.57 86.23 35.57C86.15 35.57 85.99 35.57 85.77 35.58C85.55 35.59 85.29 35.61 85.02 35.64C84.75 35.67 84.49 35.73 84.23 35.81C83.97 35.89 83.77 36 83.63 36.14C83.49 36.28 83.38 36.47 83.3 36.71C83.22 36.95 83.17 37.2 83.14 37.46C83.11 37.72 83.09 37.96 83.08 38.19C83.07 38.42 83.07 38.59 83.07 38.71V47.75C83.07 47.89 83.07 48.07 83.08 48.3C83.08 48.53 83.11 48.77 83.14 49.03C83.17 49.29 83.22 49.53 83.3 49.76C83.38 49.99 83.49 50.18 83.63 50.31C83.77 50.45 83.97 50.56 84.23 50.64C84.49 50.72 84.75 50.77 85.02 50.81C85.29 50.84 85.54 50.86 85.77 50.87C86 50.88 86.15 50.88 86.23 50.88C86.31 50.88 86.46 50.88 86.69 50.87C86.92 50.86 87.16 50.84 87.42 50.81C87.68 50.78 87.94 50.72 88.2 50.64C88.46 50.56 88.66 50.45 88.8 50.31Z" fill="white"/>
    <path d="M105.08 47.74C105.06 47.88 105.04 48.15 105.03 48.55C105.02 48.95 104.99 49.38 104.93 49.85C104.87 50.32 104.78 50.78 104.65 51.22C104.52 51.67 104.34 52.01 104.1 52.25C103.86 52.49 103.52 52.68 103.07 52.82C102.62 52.96 102.16 53.06 101.7 53.12C101.23 53.18 100.8 53.21 100.4 53.22C100 53.23 99.73 53.23 99.6 53.23C99.44 53.23 99.16 53.23 98.76 53.22C98.36 53.21 97.93 53.17 97.46 53.12C96.99 53.06 96.53 52.96 96.09 52.82C95.64 52.68 95.3 52.49 95.06 52.25C94.82 52.01 94.64 51.67 94.51 51.22C94.38 50.77 94.29 50.31 94.23 49.85C94.17 49.38 94.14 48.95 94.13 48.55C94.12 48.15 94.1 47.88 94.08 47.74V38.7C94.1 38.56 94.11 38.29 94.13 37.89C94.13 37.49 94.17 37.06 94.23 36.59C94.29 36.12 94.38 35.67 94.51 35.22C94.64 34.77 94.82 34.43 95.06 34.19C95.3 33.95 95.64 33.77 96.09 33.64C96.54 33.51 96.99 33.42 97.46 33.36C97.93 33.3 98.36 33.26 98.76 33.24C99.16 33.22 99.44 33.21 99.6 33.21C99.74 33.21 100.01 33.21 100.4 33.24C100.79 33.27 101.23 33.3 101.7 33.36C102.17 33.42 102.63 33.52 103.07 33.64C103.51 33.76 103.86 33.95 104.1 34.19C104.34 34.43 104.52 34.77 104.65 35.22C104.78 35.67 104.87 36.13 104.93 36.59C104.99 37.06 105.02 37.49 105.03 37.89C105.04 38.29 105.05 38.56 105.08 38.7V47.74ZM102.15 50.31C102.29 50.17 102.4 49.99 102.48 49.76C102.56 49.53 102.62 49.29 102.65 49.03C102.68 48.77 102.7 48.53 102.71 48.3C102.71 48.07 102.72 47.89 102.72 47.75V38.71C102.72 38.59 102.72 38.42 102.71 38.19C102.7 37.96 102.68 37.72 102.65 37.46C102.62 37.2 102.56 36.95 102.48 36.71C102.4 36.47 102.29 36.28 102.15 36.14C102.01 36 101.81 35.89 101.55 35.81C101.29 35.73 101.03 35.68 100.77 35.64C100.51 35.61 100.27 35.59 100.04 35.58C99.81 35.57 99.66 35.57 99.58 35.57C99.5 35.57 99.34 35.57 99.12 35.58C98.9 35.59 98.64 35.61 98.37 35.64C98.1 35.67 97.84 35.73 97.58 35.81C97.32 35.89 97.12 36 96.98 36.14C96.84 36.28 96.73 36.47 96.65 36.71C96.57 36.95 96.52 37.2 96.49 37.46C96.46 37.72 96.44 37.96 96.43 38.19C96.42 38.42 96.42 38.59 96.42 38.71V47.75C96.42 47.89 96.42 48.07 96.43 48.3C96.43 48.53 96.46 48.77 96.49 49.03C96.52 49.29 96.57 49.53 96.65 49.76C96.73 49.99 96.84 50.18 96.98 50.31C97.12 50.45 97.32 50.56 97.58 50.64C97.84 50.72 98.1 50.77 98.37 50.81C98.64 50.84 98.89 50.86 99.12 50.87C99.35 50.88 99.5 50.88 99.58 50.88C99.66 50.88 99.81 50.88 100.04 50.87C100.27 50.86 100.51 50.84 100.77 50.81C101.03 50.78 101.29 50.72 101.55 50.64C101.81 50.56 102.01 50.45 102.15 50.31Z" fill="white"/>
    <path d="M180.32 37.59C180.26 37.59 180.12 37.58 179.9 37.56C179.68 37.54 179.51 37.49 179.4 37.39C179.31 37.3 179.26 37.14 179.25 36.92C179.24 36.69 179.22 36.55 179.21 36.47V34.65C179.23 34.58 179.24 34.43 179.25 34.2C179.25 33.97 179.31 33.82 179.4 33.72C179.51 33.63 179.68 33.57 179.9 33.55C180.13 33.53 180.26 33.52 180.32 33.52C180.38 33.52 180.52 33.52 180.74 33.55C180.96 33.58 181.12 33.63 181.22 33.72C181.32 33.81 181.37 33.97 181.39 34.2C181.41 34.42 181.42 34.57 181.42 34.65V36.47C181.42 36.55 181.42 36.69 181.39 36.92C181.37 37.14 181.31 37.3 181.22 37.39C181.13 37.49 180.97 37.54 180.74 37.56C180.51 37.58 180.38 37.59 180.32 37.59ZM183.99 37.59C183.94 37.59 183.79 37.58 183.57 37.56C183.35 37.54 183.19 37.49 183.09 37.39C183 37.3 182.94 37.14 182.92 36.92C182.9 36.69 182.89 36.55 182.89 36.47V34.65C182.89 34.58 182.89 34.43 182.92 34.2C182.94 33.97 182.99 33.82 183.09 33.72C183.19 33.62 183.34 33.57 183.57 33.55C183.8 33.53 183.93 33.52 183.99 33.52C184.07 33.52 184.22 33.52 184.44 33.55C184.66 33.58 184.82 33.63 184.92 33.72C185.02 33.81 185.07 33.97 185.09 34.2C185.11 34.42 185.12 34.57 185.12 34.65V36.47C185.12 36.55 185.12 36.69 185.09 36.92C185.07 37.14 185.01 37.3 184.92 37.39C184.83 37.49 184.67 37.54 184.44 37.56C184.21 37.58 184.07 37.59 183.99 37.59Z" fill="white"/>
    <path d="M113.39 37.59C113.33 37.59 113.19 37.58 112.97 37.56C112.75 37.54 112.58 37.49 112.47 37.39C112.38 37.3 112.33 37.14 112.32 36.92C112.31 36.69 112.29 36.55 112.28 36.47V34.65C112.3 34.58 112.31 34.43 112.32 34.2C112.32 33.97 112.38 33.82 112.47 33.72C112.58 33.63 112.75 33.57 112.97 33.55C113.2 33.53 113.33 33.52 113.39 33.52C113.45 33.52 113.59 33.52 113.81 33.55C114.03 33.58 114.19 33.63 114.29 33.72C114.39 33.81 114.44 33.97 114.46 34.2C114.48 34.42 114.49 34.57 114.49 34.65V36.47C114.49 36.55 114.49 36.69 114.46 36.92C114.44 37.14 114.38 37.3 114.29 37.39C114.2 37.49 114.04 37.54 113.81 37.56C113.58 37.58 113.45 37.59 113.39 37.59ZM117.06 37.59C117.01 37.59 116.86 37.58 116.64 37.56C116.42 37.54 116.26 37.49 116.16 37.39C116.07 37.3 116.01 37.14 115.99 36.92C115.97 36.69 115.96 36.55 115.96 36.47V34.65C115.96 34.58 115.96 34.43 115.99 34.2C116.01 33.97 116.06 33.82 116.16 33.72C116.26 33.62 116.41 33.57 116.64 33.55C116.87 33.53 117 33.52 117.06 33.52C117.14 33.52 117.29 33.52 117.51 33.55C117.73 33.58 117.89 33.63 117.99 33.72C118.09 33.81 118.14 33.97 118.16 34.2C118.18 34.42 118.19 34.57 118.19 34.65V36.47C118.19 36.55 118.19 36.69 118.16 36.92C118.14 37.14 118.08 37.3 117.99 37.39C117.9 37.49 117.74 37.54 117.51 37.56C117.28 37.58 117.14 37.59 117.06 37.59Z" fill="white"/>
  </g>
  <defs>
    <clipPath id="clip0_1_5031">
      <rect width="185.7" height="59.12" fill="white"/>
    </clipPath>
  </defs>
</svg>
