<?xml version="1.0" standalone="no"?>
<!DOCTYPE svg PUBLIC "-//W3C//DTD SVG 20010904//EN"
 "http://www.w3.org/TR/2001/REC-SVG-20010904/DTD/svg10.dtd">
<svg version="1.0" xmlns="http://www.w3.org/2000/svg"
 width="700.000000pt" height="700.000000pt" viewBox="0 0 700.000000 700.000000"
 preserveAspectRatio="xMidYMid meet">
<metadata>
Created by potrace 1.11, written by Peter Selinger 2001-2013
</metadata>
<g transform="translate(0.000000,700.000000) scale(0.100000,-0.100000)"
fill="#000000" stroke="none">
<path d="M4460 6470 c-19 -4 -46 -12 -60 -19 -14 -7 -290 -277 -613 -600 -438
-436 -595 -599 -614 -635 -44 -86 -37 -112 136 -526 84 -201 159 -378 166
-395 28 -65 115 -273 134 -321 11 -28 29 -71 39 -95 11 -24 31 -69 45 -101 31
-69 86 -123 141 -136 26 -7 330 -11 831 -12 435 -1 853 -2 930 -3 228 -1 139
-67 794 586 389 388 579 585 592 612 28 61 24 112 -22 238 -101 273 -234 483
-439 688 -283 284 -617 473 -1068 605 -91 27 -154 41 -210 50 -20 3 -45 7 -54
10 -121 35 -624 72 -728 54z m380 -435 c557 -54 1033 -254 1353 -568 51 -50
107 -110 123 -132 16 -22 31 -42 35 -45 19 -16 97 -145 139 -228 l49 -97 -457
-456 -457 -457 -650 4 c-357 2 -713 3 -790 4 l-140 0 -19 48 c-11 26 -28 67
-39 92 -38 87 -46 107 -122 290 -42 102 -84 203 -94 225 -10 22 -40 92 -66
155 -26 63 -56 135 -67 159 l-20 44 489 489 488 488 90 -4 c50 -3 119 -8 155
-11z"/>
<path d="M1009 5015 c-62 -15 -91 -38 -203 -158 -445 -478 -714 -1005 -790
-1552 -14 -99 -15 -454 -2 -520 4 -16 13 -66 22 -110 8 -44 20 -98 26 -120 6
-22 12 -44 14 -50 10 -43 73 -202 114 -289 53 -111 90 -151 163 -175 41 -14
1607 -22 1657 -9 28 7 164 138 710 686 427 428 682 691 693 715 29 60 24 120
-18 222 -21 50 -52 126 -70 170 -58 143 -256 619 -270 650 -7 17 -46 109 -85
205 -40 96 -83 196 -98 222 -33 63 -98 105 -172 113 -114 12 -1645 12 -1691 0z
m1738 -938 l214 -508 -555 -554 c-468 -469 -559 -555 -583 -555 -40 -1 -839 1
-1075 3 l-197 1 -10 25 c-5 15 -19 50 -29 79 -24 61 -60 212 -70 286 -16 121
-7 380 18 504 17 85 19 94 46 186 55 187 134 361 251 550 100 161 176 262 322
424 l65 73 695 -3 695 -3 213 -508z"/>
<path d="M3728 3310 c-15 -5 -42 -17 -60 -29 -18 -11 -330 -319 -694 -683
-615 -617 -662 -666 -674 -711 -18 -66 -8 -125 39 -237 21 -52 108 -259 191
-460 83 -201 157 -378 165 -395 7 -16 25 -59 40 -95 14 -36 37 -79 50 -96 35
-46 102 -75 182 -79 96 -5 397 -5 463 0 115 9 189 16 300 31 485 63 1077 259
1495 494 350 196 605 382 898 653 113 105 130 128 146 196 13 57 2 93 -88 314
-43 106 -135 334 -205 507 -70 173 -136 333 -145 355 -10 22 -24 58 -31 79
-17 54 -97 132 -148 146 -48 12 -1880 22 -1924 10z m1239 -431 l472 -3 15 -37
c9 -21 24 -57 34 -81 29 -65 63 -146 137 -323 36 -88 70 -169 75 -180 6 -11
32 -74 60 -140 l50 -120 -27 -25 c-52 -48 -217 -183 -293 -239 -128 -95 -374
-254 -384 -248 -2 1 -12 -5 -22 -15 -39 -34 -361 -188 -534 -255 -241 -93
-591 -186 -825 -219 -27 -3 -59 -8 -70 -10 -10 -2 -49 -6 -85 -10 -36 -3 -78
-8 -95 -10 -16 -3 -107 -7 -201 -10 l-170 -5 -11 23 c-5 13 -83 198 -173 411
l-163 389 554 553 c305 305 563 555 574 557 11 2 153 2 315 1 162 -1 507 -3
767 -4z"/>
</g>
</svg>
